<?xml version="1.0" encoding="UTF-8"?>
<svg id="Layer_2" data-name="Layer 2" xmlns="http://www.w3.org/2000/svg" viewBox="0 0 585.01 653.36">
  <defs>
    <style>
      .cls-1 {
        fill: #7a7f6a;
      }

      .cls-2 {
        fill: #f9f8f6;
      }

      .cls-3 {
        fill: #7a806b;
      }

      .cls-4 {
        fill: #f6f5f3;
      }

      .cls-5 {
        fill: #f8f7f5;
      }

      .cls-6 {
        fill: #966b39;
      }

      .cls-7 {
        fill: #5e3c1c;
      }

      .cls-8 {
        fill: #8a6d43;
      }

      .cls-9 {
        fill: #f38012;
      }

      .cls-10 {
        fill: #faf8f5;
      }

      .cls-11 {
        fill: #dc7514;
      }

      .cls-12 {
        letter-spacing: .42em;
      }

      .cls-13 {
        letter-spacing: .42em;
      }

      .cls-14 {
        letter-spacing: .43em;
      }

      .cls-15 {
        fill: #fbf9f6;
      }

      .cls-16 {
        letter-spacing: .43em;
      }

      .cls-17 {
        letter-spacing: .44em;
      }

      .cls-18 {
        letter-spacing: .44em;
      }

      .cls-19 {
        fill: #2b363f;
      }

      .cls-20 {
        fill: #f07f12;
        font-family: Outfit-Medium, Outfit;
        font-size: 36.56px;
        font-variation-settings: 'wght' 500;
        font-weight: 500;
      }

      .cls-21 {
        fill: #654523;
      }

      .cls-22 {
        fill: #081725;
      }

      .cls-23 {
        fill: #996a37;
      }

      .cls-24 {
        fill: #c76a15;
      }

      .cls-25 {
        fill: #a36c32;
      }

      .cls-26 {
        fill: #0b1827;
      }

      .cls-27 {
        fill: #777c67;
      }

      .cls-28 {
        fill: #9c6c37;
      }

      .cls-29 {
        fill: #956a39;
      }

      .cls-30 {
        fill: #f37f11;
      }

      .cls-31 {
        fill: #ab6e2f;
      }

      .cls-32 {
        fill: #faf8f6;
      }

      .cls-33 {
        fill: #976b3a;
      }
    </style>
  </defs>
  <g id="Layer_1-2" data-name="Layer 1">
    <g>
      <g>
        <g>
          <path class="cls-3" d="M510.26,409.75c.19-2.56-.29-5.37.05-7.89.41-3.06,2.39-6.31,2.42-9.66.07-10.1-15.49-30.49-23.48-36.91,2.02-9.75,6.35-22.34,5.14-32.31-1.29-10.65-24.01-17.29-33.06-18.73-1.03-21.71,18.69-18.27,31.15-28.91,12.07-10.3,12.94-28.27.92-39.07-6.67-5.99-22.01-10-17.29-21.78,1.65-4.12,7.32-6.54,9.89-10.44,6.8-10.31-1.47-23.43-9.75-30.07,2.7,5.74,3.27,11.35-.19,16.95-3.01,4.88-8.89,6.89-13.14,10.38-9.73,7.98-14.2,20.65-6.33,31.72,6.02,8.47,28.35,14.83,19.62,27.96-6.2,9.32-26.39,8.14-28.71,25.31-.58,4.34,1.4,13.6,3.65,17.31-7.09-.07-17.28.51-19.79,8.49-1.74,5.53-1.74,11.97-3.4,17.57-4.17-5.61-7.28-12.08-11.78-17.45-11.06-13.21-27.38-21.77-44.46-23.85,2.45-5.12,4.62-10.58,4.58-16.39,10.81-7.66,22.6-12.53,35.47-15.68,3.2-3.15-6.12-13.97-5.1-14.95l10.96-1.92c1.34-.6,1.2-3.18.77-4.4-1.28-3.66-8.47-12.18-10.98-16.37-1.48-2.47-11.64-21.15-10.29-22.43l7.01-.99-8.28-15.54h9.21c2.59,0,9.75-2.34,11.97-3.92,11.77-8.35-4.47-22.46-9.77-29.44,6.71-9.76,13.95-20.14,19.09-30.82,3.47.91,7.08,3.47,10.11,5.46,92.29,60.35,126.2,182.21,78.33,282.21-.98,2.04-2.22,6.07-4.56,6.56Z"/>
          <path class="cls-1" d="M141.05,128.23c4.28,9.15,9.57,17.86,15.88,25.74h-9.54c.33,1.25,1.41,2.51,2.22,3.5,1.76,2.13,5.57,4.5,6.73,5.99.46.59.8,1.03.52,1.82l-29.33,29.19c-.38.81-.82,2.91-.39,3.59.69,1.08,9.78,2.01,11.7,2.6.71.22,1.12-.42.92.96-5.39,6.26-11.19,12.95-15.76,19.83-1.37,2.06-5.37,6.76-3.14,8.94l2.13.76c7.45-1.16,15.06-.19,22.5.67l-9.69,13.53c-2,6.23,6.72,3.95,10.64,4.26,4.88.39,11.84,1,16.55,1.89,1.52.29,1.22,1.53,2.06,1.9,1.31.57,3.98.44,5.5,1.25l.36,1.3c-8.85,4.96-15.23,15.87-19.17,25-6.47,14.97-9.58,31.83-11.43,47.99-18.97,9.52-39.38,18.45-56.92,30.46-9.44,6.46-14.93,12.28-20.51,22.39-5.71-13.63-9.23-28.98-11.33-43.64-10.86-75.77,19.58-156.12,79.66-203.55,2.83-2.23,6.44-5.39,9.83-6.37Z"/>
          <path class="cls-5" d="M426.38,115.52c.16-.34,0-1.25.31-1.89,1.43-3.07,2.85-6.12,4.13-9.25,1.67-1.33,27.24,17.66,30.18,20.06,89.42,72.93,112.6,197.88,56.37,299.08-1.99,3.58-8.76,15.89-11.21,18.02-.55.48-.7.83-1.59.62-.84-2.86-2.93-2.33-2.43-5.87.55-3.87,4.45-11.98,5.76-16.52,1-3.47,2.1-6.41,2.37-10.02,2.34-.49,3.58-4.52,4.56-6.56,47.87-100,13.95-221.86-78.33-282.21-3.04-1.98-6.64-4.54-10.11-5.46Z"/>
          <path class="cls-5" d="M62.88,381.79l-6.35,17.15c-8.77-22.42-15.55-46.1-17.8-70.22-7.21-77.2,26.05-157.56,87.4-204.91,1.96-1.52,7.77-6.29,9.57-6.96,1.14-.42.76.27,1.03.74,1.84,3.23,2.72,7.26,4.3,10.64-3.4.99-7,4.14-9.83,6.37-60.09,47.43-90.52,127.77-79.66,203.55,2.1,14.66,5.63,30.01,11.33,43.64Z"/>
        </g>
        <path class="cls-2" d="M493.4,236.28c-6.67-5.99-22.01-9.99-17.29-21.77,1.65-4.12,7.32-6.55,9.9-10.44,6.81-10.3-1.47-23.43-9.75-30.07,2.7,5.75,3.26,11.35-.19,16.95-3.01,4.88-8.89,6.89-13.14,10.38-9.73,7.98-14.2,20.65-6.32,31.72,6.02,8.46,28.34,14.83,19.61,27.95-6.2,9.32-26.39,8.14-28.71,25.32-.58,4.33,1.41,13.6,3.65,17.31.12.18,3.09,1.23,2.55,3.17-20.18-1.14-26.21,8.48-5.7,17.46,9.51,4.16,25.34,7.6,35.29,4.19,9.87-3.38,3.39-10.03-2.47-13.49-5.67-3.37-12.5-5.04-18.86-6.55-1.05-.8-.57-2.94-.62-4.15-1.04-21.71,18.68-18.28,31.15-28.9,12.07-10.31,12.94-28.28.92-39.08ZM461.33,317.6c1.05.17.6-.86.63-1.57.09-1.58-.06-3.2,0-4.77,4.17.39,18.07,4.23,19.43,8.22.67,1.99.57,2.93-1.18,3.99-6.26,3.82-29.83-1.17-35.1-6.49-5.68-5.76,6.88-7.07,10.79-6.33,2.24.42,4.58,4.93,5.42,6.97Z"/>
        <path class="cls-27" d="M400.32,350.01c-1.26-.22-2.44-.65-3.61-1.16-4.78-2.09-13.1-5.8-17.36-8.37-4.36-2.62-16.72-17.97-21.91-22.89-1.19-1.13-8.32-6.77-8.53-7.4-1.76-5.34,7.94-6.55,11.12-8.46,27.01,5.04,31.62,26.7,40.29,48.29Z"/>
        <g>
          <path class="cls-33" d="M180.44,261.69c-2.73,8.84-.63,15.91,3.06,23.95,7.92,17.25,20.65,35.05,29.68,52.29,25.59,48.83,41.52,102.21,51.76,156.33l-27.32,4.16c-19.03-35.35-41.82-68.69-68.55-98.63l.22-1.48,33.09-27.97c1.38-3.02-5.38-4.87-7.63-5.71-14.05-5.23-30.52-7.58-45.45-8.25-.24-24.4,2.13-50.96,11.97-73.51,3.62-8.3,9.88-18.9,19.17-21.17Z"/>
          <path class="cls-6" d="M139.14,363.04c.04.2.78,1.44.95,1.59,1.38,1.17,11.34.99,13.97,1.28,3.19.35,31.46,4.44,31.45,6.67-1.51,1.44-2.89,3.04-4.43,4.46-6.78,6.28-16.79,12.51-22.82,19.12-3.06,3.36-1.88,4.27.58,7.54,7.05,9.39,16.1,18.47,23.47,28,15.93,20.59,30.79,42.86,42.61,66.06,0,.67-11.87-2.61-13.11-2.78-8.54-1.2-16.51-.83-24.91,1-10.46,2.27-20.24,7.9-31.25,8.47-4.27-35.69-11.38-74.7-32.27-104.68-8.72-12.51-21.62-24.19-36.36-28.78-.24-1.34.87-1.75,1.7-2.43,5.68-4.65,15.43-9.87,22.02-13.56,6.32-3.54,21.03-12.28,27.1-14.21.66-.21,1.2-.43,1.92-.3.25.7-.63,1.4-.63,1.58,0,5.26-.92,16.58,0,20.97Z"/>
          <path class="cls-6" d="M116.26,469.17c-1.25-7.55-8.17-9.64-14.85-9.13-13.25,1.01-27.79,7.43-40.82,5.7-1.76-.23-3.57,0-5.34-.06,1.39-15.87,4.24-32.15,7.94-47.67,2.12-8.91,10.43-39.72,18.77-43.51,8.3-3.77,24.45,10.37,29.55,16.18,24.46,27.9,29.82,70.95,30.17,106.77-8.59-2.43-16.8-2.4-25.42,0v-28.28Z"/>
          <path class="cls-30" d="M445.44,371.62c-1.01-.72-2.2-.29-2.89-2.51-1.76-5.65,2.1-8.51,6.71-10.51,9.08-3.93,27.04-4.46,35.26,1.58,5.91,4.34,20.53,24.34,20.71,31.46.1,3.89-2.45,7.1-2.54,10.23-.08,2.83,1.45,6.66.29,9.82-7.18,16.67-10.64,35.27-21.94,49.86l4.76-2.22c-5.94,11.33-23.51,14.78-32.73,5.71l1.9-.32c-3.61-2.57-5.05-4.1-6.99-7.95l4.97-1.38,1.37-15.96,2.55-2.36c.11.1-.1.51,0,.64,1.02,1.18,2.45,1.16,2.54,1.27.12.14.54,3.73,1.27,0h-1.27c-.29-1.32-.26-2.93-1.91-2.54l8.26-3.17c-6.22-1.08-14.78-2.7-17.8-8.9l-1.9,2.54c-3.34.87-6.6,2.07-9.89,3.14-1.2.39-2.26,0-2.19,1.94-2.99-3.71-3.85-5.08-3.12-10.43.97-7.13,12.6-15.69,19.48-16.11,7.39-.44,18.33,4.93,25.57,6.84.41-1.66-.54-1.11-1.2-1.64-6.55-5.22-15.03-7.73-22.63-10.87-2.91,2.1-6.69,2.41-10.01,3.76-.91.37-6.53,2.8-6.82,3.03-3.8-1.49-4.53-4.42-4.45-8.26,5.11-9.84,13.37-17.23,25.17-18.36,7.99-.77,20.85,6.83,28.2,10.1.22-1.25-.15-1.71-.93-2.56-4.16-4.52-13.67-6.95-12.41-13.97-1.51,1.23-2.83.99-4.44,1.27l.95-1.27c-7.09-1.73-14.63-2.19-21.92-1.91Z"/>
          <path class="cls-29" d="M398.28,391.45c.79,1.36-2.1,18.56-2.61,21.6-4.52,27.22-11.56,54.01-16.38,81.17l-17.1,3.86c-.49-59.62-6.77-120.15-27.19-176.37,2.3-.98,6.88-5.87,8.94-5.29.76.22,9.26,7.85,10.63,9.12,10.78,10.03,20.27,22.03,29.21,33.69-4.06,3.05-9.41,5.05-13.28,8.31-.88.74-3,2.1-2.32,3.44l30.09,20.47Z"/>
          <path class="cls-32" d="M194.95,285.33c.11.06.75,1.52,1.35,2.11,27.67,27.06,56.97,45.76,94.54,56.72l5.26,7.12c-2.52-.41-5.18,1.78-7.36,1.88-2.42.11-4.39-2.38-6.98-.65-2.06,1.38-8.31,11.51-9.91,14.23-2.92,4.95-5.81,10.18-7.52,15.67-.92.22-1.5-.21-2.26-.58-4.78-2.33-27.27-21.73-30.41-26.14-5.79-8.15-12.1-23.84-17.41-33.43-6.83-12.35-14.31-24.36-21.08-36.75.09-.6,1.41-.4,1.79-.18Z"/>
          <path class="cls-6" d="M420.66,403.39c-.42,3.93.23,7.78,1.59,11.44.54,1.47,2.06,2.49,2.23,4.18.14,1.44-.67,2.86-.66,4.37.05,5.82.97,9.35,4.39,14.12l-6.27,7.2c.24-2.14.17-4.26-2.54-3.81-.15,2.3.19,4.71,0,6.99-.38,4.49-2.86,8.41-4.13,12.71-3.51,11.97-4.44,24.47-5.41,36.86-7.15-1.64-14.12-3.95-21.6-3.18,4.16-22.49,9.71-44.73,13.78-67.24,1.96-10.84,4.29-22.22,5.28-33.16l13.35,9.53Z"/>
          <path class="cls-7" d="M409.22,323.32c4.27,6.11,9.47,21.14,18.13,21.63,9.65.55,11.12-13.53,13-20.36,10.19,6.86,30.02,10.89,41.94,8.26-.09,5.99-.98,12.22-3.18,17.79-1.54-.29-5.59-1.27-6.67-1.27h-12.71c-2.83,0-10.64,2.45-13.46,3.7-11.82,5.26-14.5,16.45-4.02,24.89-17.05-1.51-27.61-13.56-34.43-28.16-1.28-2.74-7.87-18.65-7.42-20.3.35-1.31,5.15-4.66,6.56-5.59.86-.57,1.97-.43,2.24-.59Z"/>
          <path class="cls-5" d="M284.66,433.89c-1.1.29-1.27-.46-1.91-.95-2.47-1.89-6.35-6.65-8.58-9.21-12.85-14.71-24.7-32.08-33.35-49.57l23.74,16.36c.72-.11,1.26-.34,1.72-.93,1.55-2,3.43-7.46,4.94-10.14,1.79-3.17,4.08-7.5,6.19-10.34.5-.67,1.16-1.82,1.85-.66l11.01,20.14-5.59,45.3Z"/>
          <path class="cls-24" d="M268.14,140.31c3.94.16,6.85,3.05,10.15,4.78,9.02,4.74,18.34,8.95,28.12,11.91,24.36,7.37,49.8,7.61,75.06,8.7l3.6,9.56c-3.05-.66-6.17-.8-9.29-.68-1.17.05-1.95.67-2.15.68-.62.05-1.29-.08-1.91,0-.66-1.05-2.41-.63-3.49-.65-37.6-.46-69.02-6.61-100.1-28.59-.12-1.87.17-3.87,0-5.72Z"/>
          <path class="cls-10" d="M359.65,238.81c7.1-11.02,20.55-15.3,33.04-12.07l-2.54,2.53c5.94-.52,11.71,1.73,16.52,5.09-5.21.8-10.19,1.74-15.25,3.18,4.21,4.07,9.07,7.74,11.44,13.33l-15.89,1.92c-.43,2.23,3.39,1,3.81,3.17l-16.18,8.29c-4.06-7.95-9.72-15.01-14.23-22.69-.63-1.07-.53-2.41-.73-2.75Z"/>
          <path class="cls-4" d="M337.41,371.62c.82-1.02,1.16.07,1.27.95.67,5.24.37,16.12.03,21.64-.48,7.74-2.63,17.5-4.94,24.93-1.04,3.33-2.24,7.89-4.61,10.32-2.25-9.13-5.09-18.17-8.26-27.02-1.19-3.33-6.8-14.81-6.79-17.03.03-5.91,4.04-14.24,2.97-20.77l14.39,19.64c1.71.46,2.07-1.08,2.68-2.24,1.46-2.79,2.85-7.29,3.26-10.41Z"/>
          <path class="cls-5" d="M331.68,376.07c-5.03-7.18-8.73-15.34-14.59-21.94-3.65-4.11-7.99-9.14-13.99-6.66-.46-.45,2.07-3.52,2.56-4.11,1.96-2.38,4.35-4.52,6.23-7.11,2.68-3.7,4.33-7.82,6.88-11.55l9.14-.46c5.89,16.72,10.03,34.51,3.78,51.84Z"/>
          <path class="cls-8" d="M402.86,357l1.27,1.11c.56,5.39,11.14,13.62,12.41,16.7.41,1-.51,2.65-.36,4.08.29,2.9,1.36,6.96,2.45,9.68,1.88,4.71,4.21,4.51,3.29,9.74-4.85-3.17-9.87-6.22-14.62-9.53-1.27-.89-2.1-2.03-3.23-2.81-7.38-5.07-14.9-10.2-22.82-14.36,1.6-5.42,14.77-5.31,12.37-12.03-.26-.72-6.27-8.88-7.29-10.2l16.52,7.63Z"/>
          <path class="cls-29" d="M440.36,324.6c-1.88,6.83-3.35,20.91-13,20.36-8.67-.49-13.86-15.53-18.13-21.63.06-.03-.14-.94.44-1.28,1.48-.87,3.39-1.88,5-.67,2.87,2.14,7.51,13.11,10.55,16.78.95,1.14,1.83,2.63,3.39,3,1.83,0,3.18-5.01,3.65-6.54,1.45-4.71,1.92-9.68,3.02-14.46.55-.41,4.6,4.13,5.08,4.45Z"/>
          <path class="cls-4" d="M343.77,295.99l5.37-7.65c8.13-2.01,14.32-6.09,20.04-12.04.19,7.54-10.86,22.08-18.2,22.7-2.53.21-4.79-2.73-7.21-3.01Z"/>
          <path class="cls-19" d="M318.35,460.58c10.94-16.72,19.23-34.17,23.33-53.88.55-2.64.56-5.35.98-7.92.09-.57.27-1.91,1.1-1.74.29,14.2-3,28.31-8.59,41.28-1.55,3.59-10.57,21.3-13.45,22.13-1.09.31-2.26.11-3.36.13Z"/>
          <path class="cls-19" d="M308.18,463.12c-1.65-.38-3.55.97-5.04.34s-9.43-7.63-11.18-9.21c-8.96-8.1-18.97-19.51-25.86-29.43-.54-.78-4.11-5.77-3.67-6.17,1.63-.35,1.6.27,2.44,1.05,2.84,2.65,5.9,7.35,8.67,10.39,10.77,11.84,22.32,22.82,34.64,33.03Z"/>
          <path class="cls-11" d="M239.01,127.61c.2-.06,1.15-.44,2.09-.74,1.41-.45,8.04-2.56,8.81-2.36,2.74,2.29,5.29,5,8.12,7.16,1.5,1.14,9.59,6.26,9.97,6.88.36.59.09,1.18.14,1.75.17,1.85-.12,3.85,0,5.72-8.13-5.75-14.35-13.07-23.98-15.74-2-.55-5.86.5-5.16-2.68Z"/>
          <path class="cls-19" d="M406.09,319.48c-5.78-10.65-16.72-16.36-27.39-21.25l-10.79-3.5c16.87-.24,33.21,9.24,43.2,22.55l-5.02,2.19Z"/>
          <path class="cls-11" d="M456.88,437.07l-2.55,2.36-1.37,15.96-4.97,1.38c-.43-.86-1.18-1.65-1.22-1.77-1.73-5.76-.09-11.34,3.5-15.97,2.49-3.21,3.51-5.02,6.62-1.96Z"/>
          <path class="cls-4" d="M359.65,215.29c5.87-1.83,6.09-11.49,5.72-16.53l7.02.93c2.11,8.57-3.42,16.12-12.42,16.88-1.67.14-.69-.36-.32-1.28Z"/>
          <path class="cls-19" d="M400.32,350.01c.86,2.15,2.95,4.31,2.54,6.99l-16.52-7.63c-2.05-2.64-5.71-5.44-6.99-8.9,4.27,2.57,12.58,6.28,17.36,8.37,1.17.51,2.35.94,3.61,1.16Z"/>
          <path class="cls-19" d="M368.55,267.4l-9.77,1.07-17.55-4.24c8.58-2.49,20.65-4.11,27.32,3.16Z"/>
          <path class="cls-21" d="M482.3,332.86c.99-.22,4.74-2.28,5.08-1.9-.79,6.88-1.84,13.78-4.13,20.34l-1.14.53c-1-.18-2.07-1.01-2.99-1.18,2.19-5.57,3.08-11.81,3.18-17.79Z"/>
          <path class="cls-27" d="M360.29,202.58c.31-.23.12-2.66,2.53-1.9,1.44,3.61,1.63,6.18-.06,9.78-.92,1.96-2.23,2.65-3.11,4.84-3.99,1.24-12.49,1.2-8.53-4.38,3.58,1.99,9-1.05,7.9-5.15,3.23.67,4.82-2.57,1.27-3.18Z"/>
          <path class="cls-11" d="M446.08,426.91c.29,2.47-1.69,3.11-3.81,3.18-1.77,1.62,4.69,1.32,5.09,1.91-1.33,5.73-8.55,5.43-12.42,1.9-.82-.74-.71-1.65-.92-1.91-.07-1.94.99-1.55,2.19-1.94,3.29-1.07,6.54-2.27,9.89-3.14Z"/>
          <path class="cls-21" d="M421.93,398.31c-.29,1.67-1.14,3.84-1.27,5.08l-13.35-9.53c.15-1.67-.1-3.41,0-5.08,4.75,3.31,9.77,6.36,14.62,9.53Z"/>
          <path class="cls-11" d="M445.44,371.62c7.29-.29,14.82.17,21.92,1.91l-.95,1.27c-6.85,1.19-15.18.94-20.97-3.18Z"/>
          <path class="cls-24" d="M435.27,406.57c-.07.05-.07,1.06-.67,1.53-1.95,1.53-4.77,5.29-6.24,3.15-2.28-3.31-.81-7.33.63-10.65.56-1.28,1.63-1.91,1.83-2.3-.08,3.84.65,6.77,4.45,8.26Z"/>
          <path class="cls-21" d="M421.93,444.7c-.17,1.47-.8,3.22-2.54,3.18.19-2.28-.14-4.69,0-6.99,2.71-.45,2.78,1.67,2.54,3.81Z"/>
          <path class="cls-4" d="M360.29,202.58c3.54.61,1.96,3.84-1.27,3.18-.1-.37-1.52-1.18-1.27-2.21.44-1.11,2.28-.77,2.54-.97Z"/>
          <path class="cls-11" d="M457.51,436.44c1.64-.39,1.62,1.23,1.91,2.54h1.27c-.72,3.73-1.14.14-1.27,0-.09-.11-1.53-.09-2.54-1.27l.64-1.27Z"/>
          <path class="cls-9" d="M408.58,233.35c-10.12-13.85-19.23-29.33-21.58-46.66-.01-.02-.01-.03-.01-.05.75-.72,5.41,1.31,5.77.19.01-.02.01-.05.01-.09.02-.12,0-.25-.06-.42l-7.62-11.13s-.03-.01-.04-.01c-3.04-.65-6.14-.79-9.26-.67-1.17.05-1.95.67-2.14.68l-.1.06-4.35,3.1h.07l7.71.16,6.18,3.02c-.05,0-.1-.01-.15,0-4.78-.2-10.02,1.1-14.46,2.88-2.81,1.13-15.28,9.38-16.19,9.2-.97-.19-1.27-1.48-1.13-3.22.1-1.2.42-2.6.87-4.01.05-.16.11-.32.16-.48.01-.01.01-.02.01-.04,1.1-3.18,2.88-6.25,4.53-6.85l.62,1.27c4.5-3.72,8.73-4.4,14.25-5.08.02-.01.03-.01.05-.01-.65-1.05-2.41-.63-3.48-.64-37.6-.47-69.02-6.61-100.11-28.59,0,0-.01,0-.01-.01-8.13-5.75-14.33-13.05-23.97-15.73-1.99-.55-5.6.56-4.92-2.61v-.02c-.07.02-.16.05-.26.09-.55.17-1.32.39-2.12.64-5.98,1.95-11.84,4.41-17.9,6.2-.02.01-.04.01-.06.02l6.55-6.26.12-.11c-7.97,3.32-15.6,7.35-23.51,10.81-.02.01-.03.01-.05.02-1.29.58-2.42,1.79-4.26,2.34-7.35,2.2-14.19-.29-20.34-4.18-.04-.03-.1-.05-.14-.09-26.45-16.87-35.36-58.42-33.24-90.62.33-5.01.93-9.78,1.77-14.2,0-.02.01-.04.01-.06.13-.7.26-1.4.39-2.12.26-1.48.55-2.97.99-4.39.05-.18.12-.36.18-.53.06-.18.14-.36.2-.56.14-.34.29-.68.45-1.01,1.06-.75,6.21,3.16,7.48,4.03,20.1,13.88,49.96,46.47,61.18,68.14,3.1,3.2,6.22,8.4,8.19,12.47,2.6,5.4,3.95,11.2,6.11,16.76l8.28-4.42h.02c-3.71-28.95-25.26-53.8-46.11-72.79-11.63-10.59-31.81-26.46-45.97-32.83-1.26-.57-3.53-1.83-4.56-.52-.33.42-.7,1.21-1.08,2.23,0,.02-.01.04-.02.06-.1.25-.19.5-.28.78-.45,1.31-.92,2.87-1.35,4.44-.05.2-.12.42-.17.62-.2.77-.4,1.52-.58,2.24-.09.34-.17.67-.25,1,0,.02-.01.04-.01.06-.09.32-.16.62-.22.91-.04.17-.09.34-.12.51-.07.27-.13.52-.18.76,0,.02,0,.04-.01.06-.05.24-.1.44-.14.63-.03.13-.05.24-.07.34-.95,4.42-1.66,9.06-2.13,13.86-3.71,37.64,7.13,84.67,32.37,110.97,5.42,5.66,7.41,1.21,13.96.65-.03.02-.05.04-.09.06-15.21,11.03-27.15,25.79-41.23,38.07h.04l17.11,1.89s-.04.04-.06.05c-4.95,4.44-9.61,8.86-13.89,13.95-1.96,2.31-8.72,10.49-9.54,12.7-.03.09-.05.16-.07.24-.02.09-.04.17-.05.25-.01.04-.01.07-.01.12,0,.98,1.94-.29,2.03-.29,7.7-5.66,17.52-10.56,26.83-12.89,1.84-.46,6.91-1.72,8.44-1.72h11.75l-2.15-1.35-7.27-2.43-.11-.03c24.77-3.73,49.64,2.07,71.82,13,29.08,14.33,52.16,39.43,83.88,48.63.01-.03.03-.07.05-.12.41-.94,3.03-3.22,3.95-3.81,9.34-5.95,22.19-3.87,32.15-.83.02,0,.03,0,.05.01-4.3-7.82-9.75-15.16-13.68-23.18-4.91-9.99-7.7-17.42-6.56-28.87.1-.98.27-2.03.49-3.1.07-.35.16-.71.26-1.06.04-.21.1-.42.16-.63.14-.52.3-1.06.47-1.58.7-2.2,1.62-4.33,2.67-6.08v.05s-.64,6.92-.64,6.92c4.72-8.35,11.91-13.77,21.92-13.34l-.17.06-7.05,2.56-2.31,1.82s.05-.01.07-.01c5.78-1.08,10.18-1.03,15.62,1.17,2.47,1,4.06,3.35,7.18,2.66.07.35.11.6.09.77,0,.05,0,.1-.01.14-.1.37-.46.25-.89.51-1.82,1.17-4.7,1.63-6.09,3.42-.02.03-.07.13-.15.29-.02.04-.04.09-.07.14-.07.14-.16.31-.26.5,0,.02-.01.04-.02.05-.11.2-.22.44-.34.68,0,.02-.01.04-.02.05-.9,1.85-2.17,4.61-2.35,5.13,0,.01-.01.02-.01.02-.01.02-.02.04-.02.05-.01.02-.01.04-.01.06-.01.04-.02.09-.02.13-.17,1.42,2.11.37,1.94,1.01,0,.01,0,.03-.01.05-5.96,5.03-12.42,6.87-20.02,7.94-3.61.51-5.55-.09-5.76,1.37-.11.77.27,2.13,1.14,4.53,2.2,6.06,5.25,9.47,8.11,14.44,7.09-11.01,20.55-15.3,33.04-12.07l-.05.05-2.48,2.48h.05c5.92-.5,11.67,1.74,16.47,5.09.75-.12,1.73.33,1.93-.3v-.03c.03-.15.03-.34-.03-.62ZM304.33,222.83c-3.46-2.42-5.93-6.28-9.17-8.9-.87-.71-1.94-.43-2.23-.6v.05s-.63,2.16-.63,2.16l-8.2-4.72-.07-.04c-3.67.59-7.91-.29-11.44-1.27-.02.02-.04.03-.06.04-.94.7-3.51.03-4.53-.22-7.18-1.83-14.17-5.96-18.17-12.32-1.21-1.93-2.9-7.06-3.95-8.13-1.89-1.96-8.87-3.62-10.75-6.63-.01-.02-.02-.03-.03-.05,2.75.06,5.13.81,7.97.65,3.13-.18,6.34-1.64,9.51-1.92,7.9-.72,14.94.67,22.49,2.51.02,0,.04.01.06.01-1.84-2.67-5.8-3.98-8.89-4.45,0-.02.01-.04.01-.05.22-1.06,3.39-.67,4.12-.58,5.04.67,14.4,5.44,18.1,8.9l.61-1.86.02-.05c-8.22-6.89-16.89-13.13-27.16-17l-12.76-3.93-.11-.03c6.94-1.96,13.67-1.41,20.55.58.03.01.07.02.11.03l-3.46-3.43-.04-.04c3.02-.46,6.58.81,9.51,1.92,2.2.82,5.37,3.19,6.98,3.76.86.31,1.95-.52,3.67.19,3.02,1.27,7.76,6.59,9.07,9.7.35-.19.56-.51.67-.9.04-.16.06-.34.07-.52.13-1.36-.49-3.23-.45-4.22v-.06c2.95,3.32,6.17,8.67,5.88,13.43-.04.7-.15,1.37-.35,2.03-.16.51-.36,1.01-.63,1.49-1.94,3.54-3.46,1.72-6.47.83.01.02.03.04.04.07,1.87,3.14,3.14,9.14,4.74,12.6l5.37,20.99s-.02-.01-.03-.02Z"/>
          <path class="cls-10" d="M289.11,185.43c-8.22-6.9-16.9-13.14-27.16-17.01l-12.87-3.95c6.98-1.97,13.75-1.4,20.66.61l-3.5-3.48c3.02-.45,6.58.82,9.52,1.92,2.2.82,5.37,3.19,6.98,3.76.86.3,1.94-.53,3.66.19,3.02,1.27,7.76,6.58,9.08,9.7,1.6-.87.2-4.28.3-5.7,3.71,4.17,7.85,11.56,4.9,16.95-1.94,3.54-3.45,1.73-6.48.83-1.17-1.92-3.82-2.75-5.08-3.81Z"/>
          <path class="cls-10" d="M371.73,175.26c.61-.08,1.28.05,1.91,0l-4.45,3.17,7.79.16,6.19,3.02c-4.83-.24-10.13,1.07-14.6,2.88-2.81,1.13-15.28,9.38-16.2,9.2-3.22-.65.89-13.33,4.43-14.61l.62,1.27c4.51-3.73,8.76-4.39,14.31-5.09Z"/>
          <path class="cls-5" d="M272.59,209.57l-6.99-3.17c8.1-1.39,8.6-6.45,10.18-13.03.14-.57-.27-1.42.93-.95,4.25,1.66,12.45,13.66,9.05,17.63-.5.26-1.21.71-1.73.79-3.68.59-7.91-.29-11.44-1.27Z"/>
          <path class="cls-26" d="M285.95,192.09l8.87,5.09c-1.65-3.04-3.83-7.51-6.34-9.85-3.7-3.46-13.06-8.23-18.1-8.9-.72-.1-3.78-.46-4.11.52,0,.01-.01.03-.01.05,0,.01-.01.03-.01.05,3.07.48,6.99,1.77,8.84,4.39.02.02.04.04.05.06-7.59-1.84-14.64-3.24-22.56-2.53-3.17.29-6.38,1.73-9.51,1.92-2.84.17-5.2-.58-7.93-.65h-.04c1.83,3.05,8.88,4.72,10.79,6.69,1.05,1.07,2.73,6.21,3.95,8.13,4,6.36,10.99,10.5,18.17,12.33,1.04.27,3.7.94,4.59.18l-.05-.02-6.93-3.16c8.11-1.39,8.6-6.45,10.18-13.02.14-.57-.27-1.42.93-.95,4.25,1.66,12.45,13.66,9.05,17.63-.48.25-1.14.66-1.65.77-.03.01-.05.02-.09.02l8.27,4.76.63-2.23c-1.6-.94-4.54-18.71-6.98-21.29ZM273.9,196.48c-.13,3.93-4.22,8.02-8.02,8.61-7.6,1.16-15.86-8.57-14.18-16.09.49-1.42,5.34-1.57,6.9-1.67-1.22,5.03-1.68,12.63,5.39,12.11,1.98-.14,5.48-2.5,4.78-4.48-.07-.2-1.9-.75-1.23-2.79.44-1.26,1.66-.8,2.5-1.03,1.48-.4,1.85-.91,3.81.01.42.81-.63,1.74-.63,1.9-.02.42-.01.85,0,1.26,0,.12.72.9.67,2.16Z"/>
          <path class="cls-26" d="M461.34,317.6c1.04.17.59-.86.63-1.57.08-1.58-.06-3.19,0-4.77,4.17.39,18.07,4.23,19.42,8.22.67,1.99.57,2.93-1.17,3.99-6.25,3.82-29.83-1.17-35.09-6.49-5.68-5.76,6.87-7.08,10.78-6.34,2.23.42,4.58,4.94,5.43,6.97Z"/>
          <g>
            <path class="cls-28" d="M301.82,31.64l8.59,8.89c15.25,19.65,21.21,45.24,20.01,69.91-18.14-2.1-38.1-1.32-56.13,1.38-6.55.98-12.95,2.7-19.48,3.71-3.5-27.15,4.18-67.03,29.92-81.61,7.56-4.28,9.05-3.51,17.11-2.28Z"/>
            <path class="cls-31" d="M413.03,166.99c-2.46-.86-4.57-2.5-7-3.48-21.43-8.68-47.51-5.97-70.2-8.6-23.87-2.76-57.81-14.49-75.32-31.44-.68-.66-1.48-1.12-1.26-2.23,9.44-1.32,18.76-3.61,28.28-4.45,44.92-3.96,87.21,3.36,118.2,38.12,1.4,1.57,8.92,10.29,7.3,12.08Z"/>
            <path class="cls-23" d="M306.91,32.28c21.72,4.7,42.43,18.65,54.67,37.16,10.59,16.01,14.69,35.29,15.23,54.35-7.03-2.59-13.71-5.87-20.97-7.94-6.69-1.91-13.46-3.07-20.33-4.13.55-28.64-7.28-59.35-28.6-79.43Z"/>
            <path class="cls-25" d="M283.39,29.1c-3.5,2.82-7.63,4.72-11.1,7.64-13.44,11.3-21.93,31.6-24.31,48.77-1.26,9.05-.46,17.51-.81,26.52-.03.77.48,2.36-.63,2.21-4.32-21.09-16.11-39.95-30.85-55.3-.88-1.93,4.38-6.48,6.05-7.94,13.26-11.57,33.69-19.56,51.17-21.27,3.45-.34,6.99.43,10.48-.64Z"/>
            <path class="cls-9" d="M384.43,124.42c-.25-9.29-.88-18.11-2.98-27.21-1.05-4.58-2.9-8.86-3.74-13.46,16.67-10.44,34.55-19.58,53.33-25.48.77.15,1.1,2.8,1.1,3.55.03,8.85-2.96,20.87-5.61,29.4-3.94,12.7-10.16,25.67-17.96,36.37,10.13-17.7,17.79-38.52,17.79-59.1-1.06-.24-1.29.34-1.89.96-2.32,2.39-5.11,5.97-7.26,8.63-11.87,14.7-21.97,30.87-32.79,46.33Z"/>
            <path class="cls-15" d="M384.43,124.42c10.82-15.46,20.91-31.63,32.79-46.33,2.15-2.66,4.94-6.24,7.26-8.63.6-.62.83-1.2,1.89-.96,0,20.58-7.66,41.4-17.79,59.1-2.56,4.47-5.64,8.54-8.6,12.73l-15.42-10.95c-.34-1.62-.09-3.31-.13-4.96Z"/>
            <path class="cls-21" d="M306.91,32.28c21.31,20.09,29.15,50.79,28.6,79.43-1.61-.25-3.69-1.11-5.08-1.27,1.2-24.67-4.76-50.26-20.01-69.91l-8.59-8.89c1.71.26,3.16.22,5.08.64Z"/>
            <path class="cls-31" d="M289.11,23.38c-8.78-2.32-16.69-8.06-26.05-8.26-1.24-12.67,12.19-6.41,18.44-2.87,4.78,2.7,8.94,4.78,7.61,11.13Z"/>
            <path class="cls-25" d="M323.25,13.4c.61.5,1.82,3.23,1.95,4.1.74,4.65-1.35,2.54-3.68,2.96-5.4.96-10.61,2.8-15.88,4.19l-.66-5.4c.14-1.8,8.19-5.18,10.18-5.73,2.2-.6,6.23-1.66,8.09-.12Z"/>
            <path class="cls-31" d="M301.82,25.92l-8.26-.64-.64-7.62c6.42-.63,9.88,1.38,8.9,8.27Z"/>
            <path class="cls-26" d="M177.27,137.13l6.98,1.59c-5.69-4.33-10.85-9.02-14.86-15-.79-1.18-3.24-4.94-3.54-5.99-.24-.82.13-1.25.93-.93,2.22.87,5.47,4.86,8.58,4.77-6.56-8.26-12.59-18.44-15.05-28.79-2.33-9.81,1.61-3.28,5.21-.12l3.51,2.2c-7.46-15.4-12.09-32.64-11.13-49.87,7.75,8.75,15.38,17.76,22.54,27.03,2.62,3.4,12.38,15.39,13.36,18.41.1.32.17,1.04-.31.94l-15.56-9.85c4.72,12.63,12.59,23.78,21.59,33.69-6.05-.15-11.49-4.48-17.14-6.36,4.97,9.45,11.94,19.27,22.22,23.21-.28.94-3.31,1.2-4.13,1.25-2.25.14-4.45.04-6.65-.31l8.25,6.04c-1.31.57-2.44,1.8-4.31,2.36-7.41,2.23-14.3-.33-20.47-4.27Z"/>
            <path class="cls-10" d="M216.67,95.82s-.41.28-.24.62c4.97,9.95,8.72,19.67,9.72,30.91l-.58.88c-7.97,3.31-15.6,7.36-23.51,10.8l-8.25-6.04c2.21.36,4.41.46,6.65.31.83-.05,3.85-.31,4.13-1.25-10.28-3.94-17.26-13.76-22.22-23.21,5.65,1.89,11.09,6.22,17.14,6.36-9-9.91-16.87-21.07-21.59-33.69l15.56,9.85c.48.1.41-.62.31-.94-.98-3.03-10.74-15.02-13.36-18.41-7.15-9.27-14.78-18.28-22.54-27.03-.95,17.24,3.67,34.47,11.13,49.87l-3.51-2.2c-3.59-3.17-7.53-9.69-5.21.12,2.46,10.35,8.49,20.53,15.05,28.79-3.1.09-6.36-3.89-8.58-4.77-.8-.32-1.17.11-.93.93.31,1.05,2.75,4.81,3.54,5.99,4.02,5.97,9.17,10.66,14.86,15l-6.98-1.59c-30.58-19.5-37.72-71.98-31.47-104.87.54-2.85.91-6.01,2.21-8.61,1.07-.75,6.21,3.16,7.48,4.04,20.11,13.88,49.96,46.46,61.18,68.14Z"/>
          </g>
          <path class="cls-27" d="M273.23,194.32c0,.11.73.89.68,2.16-.13,3.93-4.22,8.03-8.03,8.61-7.6,1.16-15.86-8.56-14.17-16.09.49-1.43,5.34-1.58,6.9-1.67-1.22,5.03-1.68,12.62,5.4,12.11,1.97-.14,5.47-2.51,4.78-4.49l4.45-.64Z"/>
          <path class="cls-4" d="M270.05,191.14l3.18,1.91c-.02.42,0,.85,0,1.27l-4.45.64c-.07-.2-1.9-.74-1.22-2.79.44-1.26,1.66-.8,2.5-1.02Z"/>
          <path class="cls-27" d="M270.05,191.14c1.48-.4,1.85-.92,3.81,0,.42.82-.63,1.75-.63,1.9l-3.18-1.91Z"/>
          <path class="cls-24" d="M294.2,189.24c1.9,3.11,3.17,9.19,4.79,12.69l5.37,20.99c-3.48-2.42-5.96-6.3-9.2-8.93-.87-.71-1.95-.43-2.23-.6-1.6-.95-4.54-18.71-6.98-21.3l8.87,5.1c-1.64-3.04-3.83-7.51-6.34-9.86l.64-1.91c1.27,1.06,3.91,1.9,5.08,3.81Z"/>
          <g>
            <path class="cls-15" d="M329.78,264.86c-1.49,5.62,4.06,12.95,7.69,16.77l7.57,5.75c-1.52,4.77-6.78,6.93-11.29,7.82-20.94,4.1-44.78-11.74-58.31-26.52-1.43-1.56-9.46-11.17-9.21-12.39.35-1.7,6.1-.84,7.61-.64-6.21-7.89-21.88-7.47-22.86,4.12.42.47,5.54-3.9,8.9-2.23.72.36,5.96,7.77,7.29,9.23,16.36,17.89,38.77,34.91,64.22,33.7,5.24-.25,8.83-3.18,12.91,2.28-4.81,12.66-20.23,16.92-32.48,14.69-14.23-2.59-28.44-14.15-40.2-22.07l.32,2.52c-.5.02-.99.06-1.48-.1-2.09-.71-10.28-8.04-12.93-9.94-1.57-1.13-3.48-2.7-5.29-3.29l12.59,17.59,17.91,31.33c-23.9-7.7-50.56-19.82-66.41-40.02-2.76-3.51-5.88-7.55-6.66-12.08.55.19,1.6-.1,2.53.3,1.75.76,10.6,6.26,11.45,5.42-1.02-4.12-4.65-6.86-6.49-10.98-1.27-2.83.79-2.4-2.4-4.27,7.99,1.09,16,3.99,23.2,7.62.99-.58-.15-1.44-.62-1.92-1.73-1.8-5.8-4.45-8.02-5.96-14.65-9.93-32.8-17.45-50.15-20.71-.3-1.47.16-1.02.81-1.43,2.65-1.67,6.62-1.5,8.72-3.65-12.94-2.74-26.07-4.97-39.4-4.46-.72-.64,3.44-4.5,4.11-5.1,3.66-3.28,8.25-6.12,12.62-8.35l9.95-3.7c-2.65-.62-5.32-1.44-8.02-1.83-10.39-1.47-20.93-1.38-31.37-.72,7.7-5.65,17.51-10.55,26.83-12.89,1.84-.46,6.92-1.73,8.44-1.73h11.76l-2.15-1.35-7.38-2.46c24.77-3.73,49.64,2.07,71.82,13,29.08,14.33,52.16,39.43,83.87,48.63Z"/>
            <path class="cls-4" d="M214.76,271.85c3.2,1.87,1.14,1.44,2.4,4.27,1.84,4.12,5.47,6.86,6.49,10.98-.85.85-9.69-4.66-11.45-5.42-.93-.4-1.98-.11-2.53-.3-2.17-.74-3.56-8.77-4.4-11.07.51-2.27,7.89.61,9.48,1.54Z"/>
          </g>
        </g>
        <path class="cls-22" d="M515.06,456.81c42.61-59.34,58.52-134.17,42.54-205.93-15.26-68.64-59.93-127.99-120.76-162.68-.89-1.79,1.65-9.87,2.05-12.58,1.07-7.27,1.94-14.58.64-21.88-1.16-6.51-1.81-6.69-7.94-5.1-6.77,1.75-15.64,5.51-22.18,8.31-12.34,5.3-24.21,11.8-35.79,18.54-6.47-14.94-18.14-27.15-31.59-36.1l-19.89-10.28c9.76-.75,13.24-11.23,7.62-18.75-4.73-6.32-13.04-4.01-19.29-1.51-1.74.71-8.36,4.94-8.86,4.89-.9-.07-2.63-1.4-4.09-1.65-2.17-.37-4.35.21-6.49-.5-1.46-.48-5.94-4.61-8.09-5.88-5.98-3.51-18.69-9.17-24.25-2.88-4.54,5.13-5.32,13.35-.12,18.35,1.19,1.14,3.06,1.55,3.82,2.82-16.34,3.12-32.36,9.28-45.41,19.73-2.56,2.05-6.1,4.63-7.34,7.61h-1.24c-.61-2.09-2.85-3.89-4.45-5.41-14.37-13.49-32.81-28.24-50.2-37.49-3-1.59-11.79-6.62-14.65-5.77-2.32.7-4.01,5.04-4.91,7.2-1.69,4.04-3.16,9.33-4.17,13.63-5.91,25.02-4.41,51.34.76,76.32-18.45,13.32-35.81,28.07-50.45,45.56C15.62,222.75,3.74,332.53,49.9,422.46l-6.72,43.22c171.24,107.86,473.7,20.91,473.7,20.91l.15-20.24c-.86-.21-3.1-8.26-1.97-9.53ZM431.05,58.29c.77.15,1.1,2.79,1.1,3.54.03,8.86-2.96,20.88-5.61,29.4-3.94,12.7-10.15,25.67-17.96,36.37-2.56,4.47-5.64,8.55-8.59,12.73l-15.42-10.95c-.34-1.63-.1-3.32-.14-4.96-.25-9.29-.88-18.1-2.97-27.21-1.05-4.58-2.9-8.86-3.73-13.45,16.67-10.44,34.55-19.58,53.33-25.48ZM405.73,154.92c1.39,1.57,8.91,10.29,7.29,12.08-2.45-.86-4.56-2.49-6.99-3.48-21.44-8.68-47.52-5.97-70.21-8.6-23.86-2.76-57.8-14.49-75.31-31.44-.68-.66-1.49-1.11-1.26-2.23,9.44-1.33,18.76-3.62,28.28-4.45,44.93-3.97,87.21,3.36,118.21,38.11ZM315.15,13.52c2.2-.6,6.24-1.66,8.1-.12.61.5,1.82,3.23,1.96,4.1.74,4.65-1.35,2.55-3.69,2.96-5.39.95-10.6,2.79-15.88,4.18l-.66-5.4c.14-1.8,8.19-5.18,10.18-5.72ZM301.82,25.93l-8.26-.64-.64-7.63c6.42-.63,9.89,1.38,8.9,8.27ZM301.82,31.65c1.71.26,3.17.21,5.08.63,21.73,4.71,42.44,18.66,54.68,37.16,10.58,16.01,14.69,35.29,15.23,54.35-7.03-2.6-13.71-5.87-20.97-7.94-6.69-1.92-13.46-3.08-20.33-4.14-1.6-.25-3.69-1.1-5.08-1.26-18.15-2.11-38.1-1.33-56.14,1.37-6.54.98-12.95,2.7-19.48,3.71-3.5-27.16,4.18-67.03,29.92-81.61,7.56-4.29,9.05-3.51,17.11-2.28ZM281.5,12.25c4.77,2.71,8.93,4.78,7.61,11.14-8.78-2.32-16.69-8.07-26.05-8.26-1.24-12.67,12.2-6.41,18.45-2.88ZM221.74,51.02c13.27-11.57,33.68-19.57,51.18-21.27,3.45-.34,6.99.43,10.48-.64-3.5,2.82-7.64,4.72-11.11,7.64-13.44,11.3-21.92,31.61-24.31,48.77-1.25,9.05-.46,17.5-.81,26.52-.02.76.48,2.36-.62,2.21-4.32-21.09-16.11-39.95-30.85-55.3-.88-1.93,4.38-6.48,6.05-7.94ZM136.03,42.93c.47-4.79,1.18-9.44,2.13-13.86.02-.11.04-.21.07-.34.04-.19.09-.4.14-.63.01-.02.01-.04.01-.06.05-.24.11-.49.18-.76.03-.17.07-.34.12-.51.06-.29.14-.59.22-.91,0-.02.01-.04.01-.06.07-.32.16-.65.25-1,.18-.72.37-1.47.58-2.24.05-.2.11-.42.17-.62.43-1.57.9-3.14,1.35-4.44.09-.28.18-.53.28-.78.01-.02.02-.04.02-.06.39-.98.75-1.75,1.07-2.17,1.03-1.31,3.3-.03,4.56.52,14.16,6.37,34.34,22.24,45.97,32.84,20.83,18.97,42.37,43.8,46.09,72.73.01.01.01.03.01.04l-8.3,4.43c-2.16-5.54-3.51-11.35-6.11-16.74-1.97-4.08-5.08-9.27-8.19-12.47.01.02-.42.28-.25.61,4.96,9.95,8.71,19.67,9.73,30.91l-.59.89-6.59,6.28-.07.07c6.08-1.78,11.96-4.25,17.96-6.22.85-.27,1.57-.49,2.12-.66.05-.02.11-.03.16-.05.02-.01.06-.02.11-.04.21-.1.64-.29,1.16-.5.21-.07.45-.16.68-.24,1.41-.46,8.05-2.56,8.82-2.36,2.74,2.29,5.29,5,8.12,7.16,1.5,1.14,9.6,6.26,9.97,6.89.36.59.09,1.18.14,1.74,3.95.16,6.86,3.05,10.15,4.78,9.03,4.74,18.35,8.96,28.13,11.91,24.35,7.36,49.8,7.61,75.06,8.7l3.56,9.49.03.07,7.62,11.13c.05.14.07.25.07.35,0,.03,0,.06-.01.09-.21,1.22-4.95-.82-5.76-.14t-.02.01c2.34,17.34,11.46,32.85,21.59,46.71.05.24.06.42.04.56v.03c-.13.73-1.16.24-1.94.35-5.21.8-10.2,1.74-15.25,3.19,4.2,4.07,9.06,7.74,11.44,13.33l-15.89,1.92c-.44,2.23,3.39,1,3.81,3.17l-16.18,8.28c-4.06-7.95-9.73-15.01-14.23-22.68-.62-1.07-.53-2.41-.73-2.75-2.86-4.98-5.91-8.4-8.11-14.44-.9-2.47-1.28-3.83-1.13-4.59.26-1.38,2.19-.8,5.75-1.31,7.6-1.07,14.06-2.92,20.02-7.94.01-.02.01-.04.01-.06.01-.02.01-.04.01-.05-.03-.49-2.17.44-1.94-1.01,0-.04.01-.09.02-.13,0-.02.02-.06.03-.12,0,0,.01-.01.01-.02.27-.66,1.5-3.33,2.35-5.13.01-.01.02-.03.02-.05.12-.25.24-.48.34-.68.01-.01.02-.03.02-.05.1-.19.18-.36.26-.5.03-.05.05-.1.07-.14.06-.13.12-.2.14-.24,1.39-1.79,4.27-2.25,6.09-3.42.45-.29.83-.12.9-.57.01-.04.01-.09.01-.14,0-.16-.03-.4-.1-.71-3.12.67-4.71-1.67-7.18-2.67-5.47-2.2-9.89-2.25-15.7-1.16l.09-.06,2.23-1.74,7.22-2.62h-.16c-9.93-.37-17.07,5.03-21.76,13.33v-.05s.64-6.92.64-6.92c-1.05,1.73-1.96,3.85-2.66,6.02-.17.52-.33,1.06-.47,1.58-.06.21-.12.42-.16.63-.1.35-.18.71-.26,1.06-.24,1.08-.42,2.15-.51,3.16-1.13,11.46,1.66,18.87,6.57,28.87,3.93,7.99,9.35,15.31,13.64,23.11.02.02.03.04.04.06-9.97-3.03-22.84-5.13-32.21.82-.9.57-3.43,2.77-3.94,3.76-.02.04-.04.09-.05.12-.01.02-.02.04-.02.06-1.49,5.62,4.07,12.95,7.69,16.78l7.58,5.75c-1.52,4.77-6.78,6.93-11.3,7.81-20.94,4.1-44.78-11.73-58.3-26.51-1.43-1.56-9.46-11.17-9.21-12.39.35-1.7,6.11-.85,7.62-.64-6.22-7.89-21.88-7.47-22.87,4.12.43.47,5.54-3.89,8.9-2.23.72.36,5.96,7.78,7.29,9.23,16.36,17.89,38.78,34.91,64.23,33.69,5.24-.25,8.83-3.18,12.9,2.28-4.81,12.66-20.23,16.93-32.47,14.69-14.24-2.59-28.44-14.14-40.21-22.06l.33,2.53c-.5.02-.99.06-1.49-.11-2.09-.71-10.27-8.04-12.93-9.94-1.57-1.12-3.49-2.71-5.29-3.28l12.58,17.59,17.91,31.33c-23.9-7.7-50.57-19.82-66.41-40.03-2.76-3.51-5.87-7.55-6.67-12.08-2.16-.74-3.55-8.77-4.39-11.07.5-2.27,7.89.62,9.47,1.54,7.99,1.09,16.01,3.99,23.21,7.62.98-.57-.16-1.43-.62-1.92-1.73-1.8-5.8-4.45-8.02-5.96-14.65-9.93-32.81-17.45-50.15-20.71-.3-1.47.17-1.02.81-1.43,2.65-1.67,6.63-1.5,8.72-3.64-12.94-2.74-26.06-4.98-39.4-4.46-.72-.63,3.45-4.49,4.12-5.09,3.65-3.28,8.25-6.12,12.61-8.36l9.95-3.7c-2.65-.61-5.32-1.44-8.02-1.82-10.39-1.48-20.93-1.39-31.37-.73-.1.01-2.1,1.33-2.02.24-.01-.03,0-.07.01-.12.01-.07.03-.16.05-.25.02-.05.04-.12.06-.18.82-2.2,7.59-10.38,9.53-12.7,4.31-5.11,8.99-9.54,13.96-14h-.05s-17.1-1.9-17.1-1.9c.02-.01.03-.03.05-.05,14.08-12.29,26.02-27.05,41.26-38.08-.02,0-.05,0-.07.01-6.48.59-8.48,4.98-13.89-.66-25.26-26.3-36.09-73.37-32.36-111.02ZM442.26,377.97c-17.06-1.51-27.62-13.56-34.43-28.16-1.27-2.74-7.86-18.65-7.42-20.3.35-1.32,5.16-4.67,6.56-5.6.86-.57,1.97-.43,2.24-.59.06-.03-.14-.93.45-1.28,1.48-.87,3.38-1.87,5-.66,2.88,2.14,7.51,13.11,10.55,16.77.95,1.14,1.83,2.63,3.4,3.01,1.83.01,3.18-5.01,3.65-6.54,1.46-4.71,1.92-9.68,3.02-14.47.55-.41,4.6,4.13,5.08,4.45,10.19,6.86,30.01,10.89,41.94,8.26.98-.22,4.73-2.28,5.07-1.9-.79,6.88-1.83,13.78-4.13,20.34l-1.12.53c-1.02-.18-2.09-1.01-3-1.18-1.54-.29-5.6-1.27-6.68-1.27h-12.71c-2.84,0-10.64,2.45-13.46,3.7-11.81,5.25-14.5,16.45-4.01,24.89ZM406.08,319.49c-5.78-10.65-16.72-16.37-27.38-21.25l-10.8-3.5c16.87-.24,33.22,9.24,43.19,22.55l-5.02,2.19ZM350.97,299.01c-2.54.21-4.78-2.73-7.21-3.02l5.37-7.65c8.13-2.01,14.32-6.09,20.04-12.04.19,7.53-10.85,22.08-18.2,22.7ZM341.22,264.24c8.58-2.49,20.65-4.11,27.32,3.17l-9.77,1.07-17.55-4.24ZM359.01,205.76c-.1-.36-1.51-1.17-1.26-2.2.44-1.11,2.27-.77,2.54-.97.31-.22.13-2.65,2.54-1.9,1.44,3.62,1.64,6.18-.06,9.78-.92,1.96-2.23,2.65-3.1,4.84,5.86-1.82,6.09-11.49,5.71-16.52l7.02.93c2.11,8.57-3.42,16.11-12.42,16.87-1.67.14-.68-.35-.31-1.28-3.99,1.24-12.49,1.2-8.53-4.38,3.57,1.99,8.99-1.05,7.89-5.16ZM331.68,376.07c-5.03-7.17-8.73-15.34-14.59-21.93-3.65-4.11-7.99-9.15-14-6.66-.45-.45,2.08-3.52,2.56-4.12,1.96-2.38,4.35-4.52,6.23-7.12,2.69-3.69,4.33-7.81,6.89-11.54l9.14-.46c5.88,16.71,10.03,34.52,3.78,51.83ZM288.73,353.16c-2.42.11-4.38-2.38-6.98-.64-2.05,1.37-8.3,11.51-9.91,14.23-2.93,4.95-5.82,10.19-7.53,15.68-.92.22-1.5-.21-2.26-.58-4.78-2.33-27.28-21.73-30.42-26.15-5.79-8.14-12.1-23.84-17.41-33.43-6.83-12.36-14.31-24.36-21.07-36.75.09-.61,1.4-.4,1.79-.18.11.06.75,1.53,1.35,2.11,27.67,27.06,56.98,45.75,94.54,56.72l5.26,7.13c-2.51-.42-5.18,1.78-7.37,1.87ZM290.25,388.6l-5.6,45.3c-1.1.29-1.26-.46-1.9-.95-2.47-1.88-6.36-6.64-8.58-9.2-12.85-14.71-24.71-32.09-33.35-49.57l23.73,16.36c.73-.11,1.26-.34,1.72-.93,1.54-2,3.42-7.47,4.93-10.14,1.79-3.17,4.08-7.5,6.18-10.34.5-.67,1.17-1.83,1.85-.66l11.01,20.14ZM38.73,328.72c-7.21-77.2,26.05-157.55,87.41-204.91,1.96-1.51,7.77-6.29,9.58-6.95,1.13-.42.76.27,1.03.75,1.83,3.23,2.72,7.25,4.3,10.64,4.28,9.15,9.57,17.86,15.88,25.73h-9.53c.34,1.25,1.41,2.51,2.23,3.5,1.75,2.13,5.56,4.5,6.73,5.99.45.59.79,1.04.51,1.82l-29.33,29.19c-.39.81-.82,2.91-.39,3.58.7,1.08,9.79,2.02,11.71,2.6.71.22,1.12-.42.92.97-5.39,6.25-11.19,12.95-15.77,19.82-1.37,2.07-5.36,6.76-3.14,8.94l2.13.76c7.46-1.16,15.05-.19,22.49.67l-9.69,13.52c-2,6.23,6.73,3.96,10.65,4.27,4.88.39,11.83,1.01,16.55,1.89,1.52.29,1.22,1.53,2.06,1.89,1.31.57,3.98.44,5.49,1.25l.36,1.29c-8.85,4.96-15.23,15.88-19.17,25.01-6.46,14.97-9.58,31.83-11.43,47.99-18.96,9.52-39.37,18.45-56.92,30.46-9.44,6.46-14.93,12.27-20.5,22.38l-6.34,17.15c-8.77-22.42-15.55-46.09-17.8-70.22ZM116.26,497.45v-28.28c-1.25-7.54-8.17-9.64-14.85-9.13-13.26,1.02-27.8,7.43-40.83,5.7-1.75-.24-3.56.01-5.33-.06,1.39-15.88,4.24-32.14,7.94-47.67,2.12-8.92,10.43-39.73,18.76-43.52,8.3-3.77,24.46,10.38,29.55,16.19,24.46,27.89,29.82,70.94,30.17,106.76-8.59-2.43-16.8-2.4-25.41,0ZM211.82,494.98c-8.54-1.21-16.51-.83-24.91,1-10.46,2.27-20.23,7.91-31.25,8.46-4.28-35.69-11.37-74.69-32.27-104.68-8.72-12.52-21.61-24.2-36.36-28.78-.25-1.35.87-1.75,1.69-2.43,5.68-4.65,15.44-9.88,22.03-13.57,6.31-3.54,21.03-12.28,27.09-14.2.66-.21,1.21-.44,1.93-.3.25.7-.63,1.39-.63,1.58,0,5.26-.92,16.57,0,20.97.04.2.78,1.43.95,1.58,1.38,1.18,11.34.98,13.97,1.28,1.99.22,13.78,1.9,22.34,3.67.43.09.85.18,1.25.27.42.09.81.17,1.2.27.59.13,1.14.27,1.67.4.35.09.7.17,1.02.27,2.42.65,3.97,1.27,3.97,1.8-1.51,1.43-2.89,3.04-4.42,4.45-6.78,6.28-16.79,12.51-22.82,19.13-3.06,3.36-1.88,4.27.58,7.54,7.06,9.38,16.1,18.47,23.48,28,15.93,20.59,30.79,42.85,42.61,66.06,0,.66-11.87-2.61-13.11-2.78ZM237.63,498.42c-19.03-35.34-41.83-68.69-68.55-98.63l.22-1.49,33.08-27.96c1.38-3.03-5.37-4.88-7.63-5.72-14.05-5.22-30.53-7.58-45.45-8.24-.25-24.41,2.13-50.96,11.96-73.52,3.62-8.29,9.88-18.9,19.17-21.17-2.73,8.84-.63,15.91,3.06,23.95,7.92,17.25,20.65,35.05,29.68,52.3,25.59,48.82,41.51,102.21,51.76,156.32l-27.32,4.16ZM303.13,463.46c-1.42-.61-9.43-7.63-11.18-9.21-8.96-8.1-18.97-19.51-25.86-29.42-.55-.78-4.11-5.77-3.67-6.17,1.64-.35,1.6.27,2.44,1.05,2.84,2.65,5.9,7.35,8.67,10.4,10.77,11.83,22.33,22.81,34.65,33.03-1.65-.37-3.55.97-5.04.33ZM317.07,364.63l14.39,19.64c1.71.46,2.07-1.08,2.67-2.25,1.47-2.79,2.86-7.3,3.27-10.41.81-1.02,1.16.07,1.26.95.67,5.23.36,16.12.02,21.65-.47,7.74-2.62,17.49-4.93,24.92-1.04,3.33-2.25,7.9-4.61,10.31-2.25-9.13-5.09-18.17-8.26-27.02-1.19-3.33-6.81-14.81-6.79-17.02.03-5.92,4.04-14.24,2.97-20.78ZM335.16,438.33c-1.54,3.6-10.57,21.3-13.45,22.13-1.09.32-2.26.11-3.37.13,10.95-16.71,19.24-34.17,23.33-53.88.56-2.63.57-5.35.98-7.92.1-.57.27-1.9,1.1-1.73.29,14.2-3,28.31-8.59,41.28ZM362.19,498.09c-.49-59.63-6.77-120.16-27.19-176.37,2.3-.97,6.88-5.87,8.93-5.29.76.21,9.27,7.84,10.64,9.12,10.77,10.04,20.27,22.03,29.21,33.69-4.07,3.04-9.42,5.05-13.28,8.31-.88.74-3.01,2.1-2.32,3.43l30.09,20.47c.79,1.36-2.1,18.55-2.6,21.59-4.53,27.23-11.57,54.01-16.38,81.17l-17.1,3.87ZM421.92,444.71c-.16,1.47-.79,3.21-2.54,3.18-.39,4.49-2.87,8.41-4.13,12.71-3.51,11.97-4.44,24.47-5.4,36.85-7.16-1.64-14.12-3.94-21.61-3.18,4.16-22.49,9.72-44.72,13.79-67.24,1.96-10.84,4.29-22.22,5.27-33.17.15-1.66-.1-3.4,0-5.08-1.26-.88-2.1-2.03-3.23-2.8-7.37-5.07-14.89-10.2-22.82-14.36,1.6-5.42,14.78-5.31,12.38-12.04-.26-.72-6.27-8.88-7.3-10.2-2.04-2.64-5.7-5.44-6.99-8.89-4.35-2.63-16.71-17.98-21.9-22.9-1.2-1.13-8.32-6.77-8.54-7.4-1.75-5.34,7.95-6.55,11.12-8.46,27.02,5.04,31.63,26.71,40.3,48.29.87,2.15,2.94,4.31,2.55,7l1.26,1.1c.57,5.39,11.15,13.62,12.41,16.7.42,1-.5,2.65-.36,4.08.3,2.91,1.37,6.97,2.46,9.68,1.88,4.71,4.21,4.52,3.28,9.74-.29,1.68-1.13,3.84-1.26,5.08-.43,3.93.22,7.78,1.58,11.45.53,1.48,2.06,2.49,2.23,4.18.14,1.43-.67,2.86-.66,4.37.05,5.82.97,9.34,4.39,14.11l-6.27,7.2ZM430.88,421.56c.97-7.13,12.6-15.69,19.48-16.1,7.38-.45,18.33,4.93,25.57,6.84.41-1.66-.53-1.11-1.2-1.64-6.55-5.23-15.03-7.74-22.63-10.87-2.91,2.11-6.69,2.42-10.01,3.76-.91.37-6.53,2.8-6.82,3.03-.07.05-.07,1.06-.67,1.53-1.95,1.53-4.77,5.3-6.24,3.16-2.28-3.32-.81-7.33.63-10.65.56-1.28,1.63-1.9,1.83-2.3,5.1-9.84,13.37-17.23,25.18-18.36,7.99-.77,20.84,6.83,28.19,10.1.21-1.24-.15-1.7-.92-2.56-4.17-4.53-13.67-6.94-12.42-13.96-1.52,1.22-2.84,1-4.44,1.27-6.85,1.19-15.18.93-20.97-3.18-1.02-.72-2.2-.3-2.89-2.51-1.77-5.65,2.1-8.51,6.71-10.51,9.07-3.93,27.04-4.46,35.27,1.58,5.91,4.34,20.52,24.34,20.7,31.46.1,3.88-2.45,7.09-2.54,10.23-.09,2.82,1.44,6.66.29,9.81-7.18,16.67-10.64,35.28-21.93,49.86l4.75-2.21c-5.94,11.33-23.51,14.78-32.73,5.71l1.89-.32c-3.61-2.57-5.05-4.1-6.99-7.95-.43-.86-1.18-1.65-1.21-1.77-1.73-5.76-.1-11.34,3.49-15.97,2.49-3.2,3.51-5.01,6.62-1.96.11.11-.11.51,0,.64l.63-1.27,8.26-3.18c-6.22-1.08-14.79-2.7-17.79-8.89l-1.9,2.54c.29,2.46-1.69,3.11-3.81,3.18-1.78,1.62,4.69,1.33,5.08,1.92-1.34,5.72-8.55,5.42-12.42,1.9-.81-.75-.71-1.65-.92-1.92-3-3.71-3.85-5.08-3.12-10.43ZM504.54,442.16c-.83-2.86-2.92-2.33-2.42-5.87.55-3.87,4.45-11.97,5.76-16.51,1.01-3.48,2.11-6.42,2.38-10.03.19-2.56-.28-5.36.05-7.89.41-3.06,2.4-6.31,2.42-9.65.06-10.11-15.49-30.49-23.49-36.91,2.01-9.75,6.35-22.34,5.14-32.3-1.28-10.66-24.01-17.29-33.05-18.74.05,1.21-.43,3.35.62,4.15,6.37,1.51,13.19,3.18,18.87,6.55,5.85,3.47,12.33,10.11,2.46,13.49-9.95,3.4-25.78-.03-35.29-4.19-20.51-8.98-14.48-18.61,5.7-17.46.55-1.94-2.43-2.99-2.55-3.17-7.08-.06-17.27.51-19.78,8.48-1.74,5.53-1.74,11.97-3.4,17.57-4.17-5.62-7.28-12.08-11.78-17.46-11.06-13.2-27.38-21.76-44.46-23.85,2.45-5.13,4.61-10.58,4.58-16.39,10.81-7.66,22.6-12.53,35.47-15.68,3.2-3.16-6.12-13.96-5.1-14.95l10.96-1.92c1.35-.6,1.21-3.18.77-4.41-1.27-3.66-8.46-12.18-10.97-16.36-1.48-2.47-11.64-21.15-10.29-22.44l7.01-.98-8.28-15.55h9.21c2.59,0,9.75-2.34,11.97-3.92,11.76-8.36-4.47-22.46-9.77-29.45,6.71-9.76,13.95-20.14,19.09-30.82.16-.34.01-1.25.31-1.89,1.43-3.07,2.85-6.12,4.12-9.26,1.67-1.34,27.24,17.65,30.18,20.06,89.43,72.93,112.61,197.88,56.37,299.08-1.98,3.58-8.75,15.89-11.21,18.02-.55.48-.7.83-1.59.62Z"/>
      </g>
      <g>
        <path class="cls-22" d="M585.01,568.5v10.18c0,.81-.1,1.59-.3,2.33-3.77,2.25-7.62,4.46-11.53,6.62-73.7,40.8-172.32,65.72-280.67,65.72s-204.68-24.36-278.1-64.31c-4.06-2.21-8.05-4.46-11.95-6.76-.18-.7-.27-1.43-.27-2.19v-36.66c0-4.95,4.02-8.95,8.95-8.95h9.02c.15,0,.29,0,.44.01-3.46-2.39-6.59-5.07-9.32-8-3.58-3.83-6.38-8.28-8.33-13.23-1.96-4.95-2.95-10.61-2.95-16.84,0-4.13.69-8.43,2.05-12.78,1.43-4.6,3.79-8.89,6.96-12.75,3.32-4.01,7.7-7.29,13.01-9.72,5.26-2.42,11.62-3.63,18.89-3.63,4.48,0,9.34.74,14.45,2.23.86.25,1.69.52,2.52.82,1.57-1.25,3.53-1.96,5.57-1.96h10.65c1.84,0,3.55.55,4.98,1.51,1.6-2.42,4.34-4,7.44-4,3.73,0,6.8-.22,9.12-.64,2.87-.52,4.29-1.04,4.87-1.29.63-.27.98-.46,1.14-.55,1.63-1.43,3.73-2.23,5.91-2.23h7.38c4.95,0,8.95,4,8.95,8.95v30.73c.62-.22,1.23-.44,1.85-.64,3.38-1.07,6.37-1.59,9.14-1.59,14.44,0,21.76,6.71,25.37,12.35.31.49.62.99.9,1.52l15.22,1.05c2.23-2.69,4.75-5.1,7.52-7.21,6.71-5.1,14.59-7.7,23.39-7.7,4.75,0,9.46.75,14,2.25,4.95,1.63,9.45,4.43,13.39,8.32,1.21,1.19,2.34,2.52,3.4,3.95.03-4.91,4.03-8.89,8.95-8.89h5.47c2.51,0,4.8-.36,6.79-1.06,1.46-.51,2.2-.89,2.48-1.05,1.67-1.66,3.93-2.59,6.3-2.59h6.69c2.74,0,5.23,1.23,6.88,3.23,1.12-.72,2.23-1.34,3.36-1.85,3.31-1.55,6.76-2.32,10.26-2.32,5.22,0,10.06,1.75,14,5.08v-3.82c0-1.29.01-2.7.05-4.21-.04.01-.08.01-.13.01-2.21,0-4.34-.82-5.99-2.31-1.88-1.69-2.96-4.11-2.96-6.64v-11.91c0-4.95,4.01-8.95,8.95-8.95,3.73,0,6.8-.22,9.12-.64,2.86-.52,4.29-1.04,4.87-1.29.63-.27.97-.46,1.14-.55,1.63-1.43,3.72-2.23,5.91-2.23h7.38c4.94,0,8.95,4,8.95,8.95v43.18l10.94-.22c2.47-2.89,5.24-5.37,8.29-7.49,6.73-4.63,14.21-6.97,22.22-6.97s15.75,2.09,22.35,6.21c3.13,1.94,5.96,4.3,8.45,7.04l17.9-.36c3.25-3.4,6.97-6.21,11.09-8.41,5.61-2.98,11.87-4.49,18.6-4.49s13.13,1.28,18.19,3.82l15.48-3.48c0-1.02.02-2.12.05-3.28-.04.01-.08.01-.13.01-2.21,0-4.35-.82-6-2.31-1.87-1.69-2.95-4.11-2.95-6.64v-11.91c0-4.95,4-8.95,8.95-8.95,3.64,0,6.66-.22,8.98-.64,2.76-.5,4.25-.99,5.02-1.33.41-.17.69-.3.85-.39,1.64-1.51,3.8-2.35,6.05-2.35h7.51c4.95,0,8.95,4,8.95,8.95v32.91c1.53-1.19,3.44-1.91,5.53-1.91h30.73c4.94,0,8.95,4.01,8.95,8.95v10.04c0,4.49-3.32,8.28-7.78,8.87-2.11.28-3.94.83-5.44,1.62-1.66.88-3.08,1.9-4.22,3.04-1.48,1.48-2.76,2.93-3.79,4.28l-3.71,4.78c1.28,1.58,2.68,3.51,4.22,5.89l8.98,13.54c.57.77,1.3,1.79,2.15,3.03.65.93,1.38,1.85,2.2,2.75.51.56,1.02,1.02,1.57,1.41,4.62.34,8.27,4.2,8.27,8.92Z"/>
        <g>
          <g>
            <polygon class="cls-22" points="525.99 574.39 500.8 573.24 498.88 573.15 491.85 572.83 487.21 572.61 440.58 570.49 431.09 570.05 429.21 570.03 423.44 569.97 412.62 569.84 392 569.61 385.24 569.53 362.55 569.28 354.86 569.18 351.59 569.15 345.91 569.08 334.45 568.95 310.14 570.29 301.19 570.78 292.72 571.25 283.77 571.75 257.84 573.17 247.99 572.3 242.87 571.86 239.04 571.52 231.96 570.9 179.86 566.33 175.22 565.92 169.21 565.4 157.62 564.37 137.95 562.65 126.22 561.62 114.64 563.6 92.2 567.43 84.31 568.78 78.54 569.76 71.89 570.89 29.85 578.06 21.61 579.46 20.78 579.61 22.26 552.33 22.65 545.19 22.76 524.97 23.05 476.18 42.66 466.56 48.48 463.71 63.74 470.89 74.11 475.77 77.6 477.42 83.06 480 95.62 485.9 114.95 495.01 125.64 500.04 126.34 500.37 148.95 501.92 161.15 502.76 176.38 503.8 188.2 504.62 212.01 506.25 228.47 505.93 238.08 505.73 239.62 505.7 247.02 505.55 275.17 505 281.34 504.87 306.04 504.38 309.25 504.32 315.34 504.2 318.19 504.14 337.59 503.75 346.54 503.57 357.48 503.35 371.08 503.09 405.12 502.41 418.79 502.14 436.69 501.79 444.97 501.62 484.58 492.71 500.06 489.23 509.04 487.21 509.56 487.1 525.99 574.39"/>
            <path class="cls-22" d="M86.6,535.6c-.43-1.19-.93-2.34-1.5-3.46-2.38-4.75-5.55-8.98-9.42-12.58-2.58-2.38-5.35-4.57-8.27-6.5h6.69c4.94,0,8.95-4,8.95-8.95v-36.51c0-3.09-1.58-5.82-3.97-7.44-1.42-.95-3.14-1.51-4.98-1.51h-10.65c-2.04,0-4,.7-5.57,1.96-.83-.29-1.66-.56-2.52-.82-5.11-1.48-9.97-2.23-14.45-2.23-7.28,0-13.63,1.21-18.89,3.63-5.31,2.44-9.68,5.71-13.01,9.72-3.18,3.86-5.53,8.14-6.96,12.75-1.36,4.35-2.05,8.65-2.05,12.78,0,6.23.99,11.9,2.95,16.84,1.96,4.95,4.76,9.4,8.33,13.23,2.73,2.93,5.86,5.6,9.32,8-.15-.01-.29-.01-.44-.01h-9.02c-4.94,0-8.95,4-8.95,8.95v36.66c0,.75.09,1.48.27,2.19.97,3.89,4.5,6.76,8.68,6.76h10.52c2.21,0,4.32-.81,5.95-2.26.98.36,1.97.69,2.96,1,5.07,1.56,9.93,2.35,14.45,2.35,8.41,0,15.94-1.67,22.43-4.97,4.29-2.17,8-4.96,11.1-8.3,1.78-1.9,3.35-3.98,4.72-6.24.38-.61.72-1.23,1.06-1.86,3.06-5.74,4.61-12.2,4.61-19.23,0-5.07-.77-9.74-2.32-13.95ZM56.23,505.35c.07.56.21,1.11.39,1.64-1.35-.68-2.68-1.31-3.99-1.9-4.62-2.23-8.46-4.3-11.41-6.18-2.74-1.75-4.05-3.21-4.66-4.14-.38-.58-.89-1.58-.89-3.51,0-1.52.44-2.19,1.28-2.89,1.33-1.13,2.73-1.64,4.52-1.64h.64c2.35,0,4.31.49,5.95,1.5,1.87,1.16,3.44,2.94,4.79,5.46,1.58,2.96,2.73,6.89,3.4,11.67ZM36.1,543.21c.05.02.1.05.16.07,3.31,1.5,6.63,3.07,9.85,4.69,2.35,1.19,4.31,2.6,5.8,4.21.47.5.95,1.27.95,2.99,0,.98-.23,1.79-.75,2.65-.54.91-1.32,1.61-2.42,2.22-1.12.62-2.52.92-4.28.92-4.06,0-7.31-1.32-10.24-4.15-3.13-3-5.2-7.94-6.17-14.66-.17-1.16-.55-2.23-1.11-3.19,2.62,1.47,5.36,2.89,8.2,4.24Z"/>
            <path class="cls-5" d="M77.11,536.15c-1.91-3.82-4.41-7.15-7.51-10.03-3.11-2.88-6.47-5.35-10.11-7.44-3.64-2.09-7.19-3.92-10.65-5.49-5.01-2.39-9.15-4.64-12.43-6.73-3.27-2.09-5.71-4.34-7.31-6.73-1.59-2.4-2.38-5.23-2.38-8.47,0-3.96,1.47-7.2,4.43-9.71,2.96-2.51,6.4-3.76,10.31-3.76,4.29-.09,8.04.85,11.27,2.82,3.23,1.99,5.9,4.94,7.99,8.86,2.1,3.92,3.56,8.8,4.37,14.65h9.02v-36.51h-10.65l.28,3.29h0c.1,1.19-1.21,1.99-2.22,1.35-2.54-1.63-5.43-2.92-8.66-3.86-3.64-1.06-7.05-1.66-10.2-1.82-.6-.04-1.17-.05-1.75-.05-6.01,0-11.06.93-15.16,2.81-4.1,1.88-7.37,4.31-9.83,7.29-2.47,2.98-4.23,6.22-5.33,9.71-1.09,3.5-1.64,6.87-1.64,10.11,0,5.11.77,9.63,2.32,13.55,1.55,3.92,3.73,7.39,6.56,10.42,1.51,1.61,3.16,3.14,4.94,4.56,1.56,1.24,3.21,2.42,4.98,3.5,3.77,2.35,7.85,4.58,12.22,6.66,3.46,1.57,6.85,3.19,10.17,4.86,3.32,1.67,6.1,3.71,8.33,6.11,2.23,2.4,3.35,5.44,3.35,9.09,0,2.61-.68,5.05-2.05,7.29-1.37,2.25-3.27,4.06-5.74,5.41-2.46,1.36-5.32,2.04-8.61,2.04-6.37,0-11.86-2.22-16.46-6.66-2.89-2.78-5.12-6.42-6.7-10.93-.93-2.67-1.63-5.63-2.1-8.89h-9.02v36.66h10.52l-.04-.64h0c-.15-2.45,2.41-4.13,4.6-3.03,1.19.6,2.4,1.14,3.63,1.63,1.1.44,2.21.84,3.35,1.18,4.23,1.31,8.18,1.96,11.81,1.96,7.02,0,13.13-1.33,18.37-3.99,3.3-1.68,6.14-3.78,8.51-6.32,1.4-1.48,2.63-3.12,3.71-4.89,2.92-4.8,4.37-10.28,4.37-16.45,0-5.11-.95-9.59-2.86-13.39Z"/>
            <path class="cls-22" d="M175.22,565.92c-.42-4.36-3.96-7.81-8.37-8.07.05-1.81.08-3.26.08-4.38v-21.01c0-3.44-.14-6.65-.4-9.64-.74-8.32-2.52-14.95-5.37-20.06-.28-.52-.59-1.02-.9-1.52-3.61-5.64-10.93-12.35-25.37-12.35-2.77,0-5.76.52-9.14,1.59-.62.2-1.23.42-1.85.64v-30.73c0-4.95-4-8.95-8.95-8.95h-7.38c-2.17,0-4.28.79-5.91,2.23-.16.09-.51.28-1.14.55-.59.25-2.01.76-4.87,1.29-2.32.42-5.38.64-9.12.64-3.11,0-5.84,1.59-7.44,4-.94,1.41-1.5,3.12-1.5,4.95v11.91c0,.14,0,.28.01.42.11,2.37,1.16,4.62,2.94,6.22.75.68,1.6,1.22,2.52,1.6,1.1.47,2.28.71,3.47.71.04,0,.08,0,.13-.01-.03,1.53-.05,2.93-.05,4.21v64.4c0,1.87-.07,3.57-.22,5.07-4.42.54-7.84,4.31-7.84,8.88v10.18c0,4.95,4,8.95,8.95,8.95h35.79c1.25,0,2.46-.26,3.54-.73,1.09.47,2.29.73,3.56.73h35.93c4.94,0,8.95-4,8.95-8.95v-11.91c0-.29-.01-.58-.04-.86ZM123.9,553.47v-31.08c.26-.16.53-.3.82-.45.95-.49,1.82-.73,2.67-.73.14,0,.25.01.33.02.02.03.04.08.07.14.48.91,1.61,3.82,1.7,11.01l.14,22.19c0,1.87-.08,3.57-.26,5.06-.21.02-.41.05-.62.08-1.37-1.07-3.07-1.74-4.92-1.85.04-1.81.07-3.26.07-4.38Z"/>
            <path class="cls-5" d="M162.21,566.86c-1.74.05-3.33.18-4.78.39.07-.94.14-1.89.19-2.88.09-1.53.17-3.09.22-4.72.08-2.67.14-4.73.14-6.19v-21.01c0-12.11-1.76-20.91-5.26-26.4-1.05-1.62-2.3-3-3.76-4.14-3.48-2.72-8.17-4.08-14.06-4.08-1.82,0-3.96.39-6.42,1.17-.95.3-1.89.65-2.83,1.02-1.48.61-2.95,1.31-4.4,2.11-2.37,1.31-4.46,2.79-6.28,4.46v-46.22h-7.38c-.64.63-1.8,1.31-3.48,2.04s-3.96,1.36-6.83,1.88-6.44.78-10.73.78v11.91c1-.1,2.49-.19,4.44-.24,1.96-.05,3.67-.13,5.12-.23-.19,2.29-.32,4.67-.41,7.12-.03.78-.05,1.53-.07,2.25-.04,1.56-.06,2.98-.06,4.26v64.4c0,2.72-.14,5.15-.41,7.29-.28,2.14-.98,3.8-2.12,4.94-.24.24-.51.46-.83.65-1.13.72-2.7,1.08-4.71,1.08v10.18h35.79v-11.91c-.91,0-2.24.03-3.96.08-1.74.05-3.37.18-4.92.39.09-1.18.18-2.39.24-3.65.07-1.28.13-2.59.18-3.94.08-2.67.14-4.73.14-6.19v-35.41c1.55-1.57,3.43-2.93,5.67-4.08,2.23-1.15,4.49-1.73,6.76-1.73,3.82,0,6.6,1.65,8.32,4.94,1.74,3.29,2.65,8.33,2.74,15.13l.14,22.24c0,2.72-.17,5.15-.48,7.29-.04.27-.09.54-.15.81-.37,1.76-1.05,3.14-2.04,4.13-1.14,1.15-2.98,1.73-5.53,1.73v10.18h35.93v-11.91c-1,0-2.37.03-4.1.08Z"/>
            <path class="cls-22" d="M246.31,566.78c-1.11,1.81-2.26,3.5-3.44,5.08-1.24,1.65-2.52,3.19-3.84,4.59-1.79,1.89-3.63,3.55-5.53,4.97-4.65,3.45-9.45,5.82-14.25,7.05-4.39,1.12-8.56,1.68-12.38,1.68-8.42,0-16.01-2.22-22.58-6.59-3.41-2.27-6.43-5.03-9.03-8.27-2.35-2.92-4.37-6.22-6.04-9.89h0c-3.34-7.36-5.03-16.01-5.03-25.72,0-5.83.78-11.48,2.34-16.85.72-2.49,1.6-4.92,2.66-7.3,1.92-4.35,4.33-8.26,7.19-11.72,2.23-2.69,4.75-5.1,7.52-7.21,6.71-5.1,14.59-7.7,23.39-7.7,4.75,0,9.46.75,14,2.25,4.95,1.63,9.45,4.43,13.39,8.32,1.21,1.19,2.34,2.52,3.4,3.95.53.73,1.05,1.48,1.55,2.28,1.67,2.68,3.12,5.71,4.3,9.05,1.04,2.92,1.8,6.07,2.3,9.55.55,3.75.79,7.84.74,12.35-.06,4.83-3.93,8.74-8.76,8.85l-35.39.74c.23,1.43.52,2.79.88,4.09.77,2.83,1.97,5,3.52,6.44.42.39,1.66,1.54,5.26,1.54.62,0,1.74-.11,3.52-.68,1.41-.44,2.96-1.25,4.6-2.43,1.59-1.15,3.17-2.79,4.68-4.9,1.56-2.19,4.02-3.54,6.69-3.72.19-.01.39-.02.59-.02,2.47,0,4.84,1.02,6.53,2.84l6.15,6.59c.73.78,1.3,1.66,1.69,2.61,1.11,2.6.93,5.67-.62,8.19Z"/>
            <path class="cls-5" d="M232.54,555.5c-2.09,2.93-4.35,5.25-6.75,6.97-2.42,1.73-4.78,2.96-7.1,3.68-2.33.73-4.4,1.1-6.22,1.1-4.74,0-8.51-1.3-11.33-3.91-2.82-2.61-4.85-6.17-6.07-10.65-1.23-4.5-1.85-9.56-1.85-15.2l44.8-.94c.09-7.52-.75-13.79-2.53-18.8-1.75-4.97-4.09-8.9-7.02-11.81-.02-.03-.05-.06-.08-.09-2.96-2.93-6.26-4.99-9.9-6.19-3.65-1.2-7.37-1.8-11.2-1.8-6.83,0-12.82,1.96-17.96,5.88-.38.29-.75.59-1.12.9-4.61,3.77-8.22,8.63-10.83,14.53-2.82,6.37-4.23,13.22-4.23,20.52,0,8.46,1.41,15.8,4.23,22.01.75,1.65,1.58,3.2,2.49,4.64,2.51,4.03,5.64,7.29,9.39,9.78,5.1,3.4,10.98,5.09,17.63,5.09,3.08,0,6.48-.47,10.17-1.41,3.69-.94,7.39-2.79,11.14-5.56,1.29-.95,2.54-2.06,3.77-3.32,2.34-2.38,4.59-5.33,6.73-8.81l-6.15-6.59ZM194.04,526.51c.72-5.22,2.23-9.48,4.51-12.77,2.27-3.29,5.42-4.94,9.42-4.94,2.19,0,4.1.58,5.74,1.71,1.63,1.16,2.94,3.01,3.89,5.57.95,2.55,1.47,6.03,1.57,10.41h-25.12Z"/>
            <path class="cls-22" d="M316.07,510.84c0,2.62-.51,5.33-1.51,8.04-1.13,3.06-2.93,5.68-5.32,7.77-.1.1-.22.2-.32.29-3.01,2.53-6.83,3.82-11.35,3.82-3.59,0-7.12-1.12-10.51-3.34-.42-.27-.85-.59-1.28-.94-.68,1.17-1.12,2.12-1.4,2.85v24.13c0,1.12-.02,2.57-.07,4.38,4.69.28,8.41,4.17,8.41,8.93v11.91c0,4.95-4,8.95-8.95,8.95h-35.78c-4.95,0-8.95-4-8.95-8.95v-10.18c0-4.55,3.4-8.31,7.79-8.88.04-.33.07-.68.1-1.04.1-1.22.16-2.57.16-4.04v-26.32c0-1.21.02-2.52.05-3.9h-.12c-.27,0-.53-.01-.81-.04-1.91-.17-3.73-.95-5.19-2.27-1.88-1.69-2.96-4.11-2.96-6.64v-11.97c.03-4.91,4.03-8.89,8.95-8.89h5.47c2.51,0,4.8-.36,6.79-1.06,1.46-.51,2.2-.89,2.48-1.05,1.67-1.66,3.93-2.59,6.3-2.59h6.69c2.74,0,5.23,1.23,6.88,3.23,1.12-.72,2.23-1.34,3.36-1.85,3.31-1.55,6.76-2.32,10.26-2.32,5.22,0,10.06,1.75,14,5.08.05.04.12.08.17.14,2.97,2.55,4.96,5.94,5.93,10.09.49,2.03.73,4.24.73,6.64Z"/>
            <path class="cls-5" d="M306.04,504.38c-.59-1.41-1.4-2.57-2.46-3.48-2.37-2.04-5.15-3.05-8.33-3.05-2.19,0-4.35.49-6.49,1.48-2.14.99-4.3,2.53-6.48,4.62-.3.29-.62.6-.93.92-1.91,1.96-3.93,4.42-6.04,7.38,0-2.1-.04-4.53-.13-7.26,0-.1-.01-.22-.01-.33-.08-2.88-.23-4.83-.41-5.88h-6.69c-.91,1.05-2.84,2.09-5.8,3.13-2.96,1.05-6.22,1.57-9.77,1.57h-5.47v11.91c1-.1,2.48-.18,4.44-.23,1.96-.05,3.66-.14,5.12-.24-.19,2.3-.32,4.62-.42,6.97-.08,2.35-.14,4.46-.14,6.35v26.32c0,2.72-.16,5.15-.47,7.29-.32,2.14-1.02,3.8-2.12,4.94-1.09,1.15-2.92,1.73-5.46,1.73v10.18h35.78v-11.91c-.91,0-2.25.03-4.03.08s-3.4.18-4.85.39c.19-2.39.32-4.94.41-7.59.09-2.67.14-4.73.14-6.19v-25.54c.55-1.99,1.53-4.15,2.94-6.5,1.41-2.35,3.03-4.39,4.85-6.11,1.82-1.73,3.64-2.59,5.47-2.59.27,3.55,1.36,5.96,3.27,7.21,1.91,1.25,3.77,1.88,5.6,1.88,2.36,0,4.23-.58,5.59-1.73,1.37-1.15,2.37-2.59,3.01-4.31.64-1.73.95-3.38.95-4.95,0-2.55-.37-4.71-1.09-6.46Z"/>
            <path class="cls-22" d="M354.86,566.78v11.91c0,4.95-4,8.95-8.95,8.95h-35.78c-4.95,0-8.95-4-8.95-8.95v-10.18c0-4.57,3.42-8.33,7.84-8.88.15-1.51.22-3.2.22-5.07v-64.4c0-1.29.01-2.7.05-4.21-.04.01-.08.01-.13.01-2.21,0-4.34-.82-5.99-2.31-1.88-1.69-2.96-4.11-2.96-6.64v-11.91c0-4.95,4.01-8.95,8.95-8.95,3.73,0,6.8-.22,9.12-.64,2.86-.52,4.29-1.04,4.87-1.29.63-.27.97-.46,1.14-.55,1.63-1.43,3.72-2.23,5.91-2.23h7.38c4.94,0,8.95,4,8.95,8.95v93.08c0,.88-.02,1.97-.05,3.26-.01.36-.02.73-.03,1.12.12.01.22.01.33.02,4.54.45,8.07,4.27,8.07,8.91Z"/>
            <path class="cls-5" d="M341.96,566.86c-1.74.05-3.38.18-4.92.39.19-2.39.32-4.94.42-7.59.08-2.67.14-4.73.14-6.19v-93.08h-7.38c-.64.63-1.8,1.31-3.48,2.04-1.68.73-3.96,1.36-6.83,1.88-2.88.52-6.44.78-10.73.78v11.91c1-.1,2.48-.19,4.44-.24,1.96-.05,3.66-.13,5.12-.23-.19,2.29-.32,4.67-.41,7.12-.09,2.46-.15,4.63-.15,6.5v64.4c0,2.72-.14,5.15-.41,7.29-.27,2.14-.97,3.8-2.11,4.94-1.14,1.15-2.99,1.73-5.53,1.73v10.18h35.78v-11.91c-.91,0-2.23.03-3.95.08Z"/>
            <path class="cls-22" d="M431.27,534.48c-.34-6.91-1.66-13.21-3.95-18.78-.43-1.08-.91-2.12-1.42-3.15-1.96-3.92-4.33-7.4-7.11-10.41-2.49-2.74-5.32-5.09-8.45-7.04-6.61-4.12-14.14-6.21-22.35-6.21s-15.48,2.34-22.22,6.97c-3.05,2.11-5.82,4.6-8.29,7.49-2.81,3.25-5.24,7.01-7.27,11.21-1.54,3.21-2.76,6.64-3.67,10.26-1.28,5.1-1.92,10.59-1.92,16.43,0,5.52.63,10.71,1.87,15.48.09.39.2.76.3,1.14.87,3.05,1.99,5.94,3.37,8.66.46.9.94,1.77,1.43,2.62,1,1.7,2.1,3.32,3.27,4.84,3.12,4.01,6.83,7.36,11.1,9.97,6.68,4.1,14.23,6.18,22.43,6.18s16.09-2.29,22.69-6.82c4.94-3.39,9.08-7.86,12.36-13.36,1-1.67,1.92-3.45,2.76-5.31.03-.07.06-.16.1-.23,2.49-5.6,4.06-11.93,4.71-18.86.23-2.4.35-4.89.35-7.45,0-1.22-.03-2.44-.08-3.63ZM389.55,561s-.23.11-.95.14c-.42,0-.61,0-1.19-.86-1.54-2.28-2.71-5.41-3.47-9.32-.89-4.53-1.34-9.21-1.34-13.95,0-3.97.38-7.83,1.12-11.45.61-2.95,1.56-5.34,2.84-7.11.37-.5.56-.67,1.5-.7h.04c.97,1.04,1.81,2.58,2.48,4.57.9,2.67,1.57,5.71,1.99,9.07.46,3.61.69,7.18.69,10.64,0,3.86-.32,7.73-.97,11.5-.51,3.02-1.37,5.46-2.53,7.21-.13.19-.2.25-.2.25Z"/>
            <path class="cls-5" d="M422.29,534.23c-.4-6.72-1.86-12.61-4.39-17.67-3-6-7.1-10.62-12.3-13.86-.16-.09-.31-.2-.48-.28-5.06-3.04-10.78-4.57-17.14-4.57s-11.73,1.75-16.91,5.25c-.08.04-.16.1-.24.16-5.23,3.6-9.42,8.67-12.56,15.19-3.15,6.53-4.72,14.14-4.72,22.8,0,8.14,1.53,15.22,4.58,21.22,1.28,2.51,2.74,4.78,4.4,6.81,2.32,2.82,5.02,5.18,8.09,7.07,5.28,3.23,11.2,4.85,17.75,4.85s12.53-1.75,17.62-5.25c2.46-1.69,4.66-3.72,6.61-6.11,2.1-2.55,3.91-5.51,5.42-8.86,2.08-4.61,3.42-9.82,4-15.6.24-2.33.37-4.76.37-7.28,0-1.32-.04-2.61-.11-3.88ZM388.94,570.07c-1.33.04-2.56-.14-3.7-.54-2.06-.7-3.81-2.11-5.24-4.23-2.24-3.29-3.85-7.5-4.85-12.61-1-5.12-1.51-10.34-1.51-15.67,0-4.59.44-9.01,1.3-13.24.87-4.23,2.33-7.76,4.37-10.58,2.05-2.81,4.85-4.28,8.41-4.38,2.73-.1,5.03.84,6.9,2.81,1.86,1.99,3.35,4.6,4.43,7.84,1.1,3.23,1.89,6.84,2.39,10.81.5,3.96.75,7.88.75,11.75,0,4.38-.37,8.72-1.1,13.01-.73,4.28-2.03,7.83-3.89,10.64-1.31,1.97-3.04,3.27-5.21,3.93-.94.27-1.96.43-3.06.46Z"/>
            <path class="cls-22" d="M503.2,567c-.3.48-.61.96-.92,1.42-.48.74-.97,1.46-1.47,2.16-.63.89-1.27,1.75-1.92,2.56-2.21,2.8-4.52,5.2-6.88,7.16-.4.33-.79.65-1.19.95-4.42,3.38-8.99,5.76-13.58,7.06-4.29,1.21-8.57,1.83-12.75,1.83-7.76,0-14.98-2.03-21.5-6.02-5.55-3.42-10.18-8.14-13.77-14.09-.61-.99-1.18-2.02-1.73-3.08-.42-.83-.82-1.66-1.18-2.52-2.45-5.59-3.87-11.97-4.27-19.04-.07-1.36-.12-2.74-.12-4.14,0-2.37.12-4.72.37-7.02.46-4.36,1.36-8.57,2.69-12.57.68-2.06,1.46-4.05,2.34-5.96,1.76-3.85,3.91-7.38,6.44-10.57.92-1.17,1.89-2.29,2.93-3.35,3.25-3.4,6.97-6.21,11.09-8.41,5.61-2.98,11.87-4.49,18.6-4.49s13.13,1.28,18.19,3.82c.18.08.35.17.52.26,5.33,2.81,9.46,6.63,12.26,11.33,1.12,1.88,2.02,3.83,2.69,5.82,1.01,2.96,1.52,6.03,1.52,9.18s-.51,5.82-1.52,8.46c-.62,1.62-1.42,3.16-2.42,4.62-3.19,4.71-8.11,7.41-13.85,7.61-.28.01-.52.01-.76.01-8.69,0-12.84-4.9-14.53-7.82-2.16-3.72-3.26-7.53-3.26-11.31,0-.91.06-1.86.2-2.88-.69.33-1.6,1.11-2.7,2.94-1.35,2.25-2.96,6.8-2.96,15.76,0,4.47.48,8.67,1.44,12.47.77,3.09,1.99,5.57,3.63,7.38.67.74,1.77,1.61,4.32,1.76h.22c2,0,3.98-.61,6.05-1.86,2.54-1.53,4.67-3.59,6.5-6.28,1.55-2.28,4.06-3.72,6.82-3.91.2-.01.39-.02.59-.02,2.54,0,4.98,1.09,6.68,3l4.04,4.53,2.25,2.52c2.65,2.98,3.01,7.34.9,10.72Z"/>
            <path class="cls-5" d="M495.07,561.63l-5.74-6.45c-2.55,3.76-5.65,6.74-9.28,8.94-3.65,2.19-7.38,3.23-11.2,3.13-4.46-.21-8.02-1.77-10.65-4.69-2.65-2.93-4.54-6.66-5.68-11.21-1.14-4.54-1.7-9.42-1.7-14.65,0-8.88,1.41-15.66,4.23-20.37,2.82-4.71,6.42-7.2,10.79-7.52.83-.1,1.89-.03,3.21.23,1.32.26,2.61.76,3.89,1.48,1.28.74,2.24,1.88,2.88,3.45-.54,1.05-.96,2.23-1.23,3.52-.27,1.31-.41,2.44-.41,3.38,0,2.19.68,4.46,2.05,6.81,1.37,2.35,3.77,3.48,7.24,3.38,2.92-.1,5.18-1.34,6.77-3.69,1.59-2.34,2.39-5.03,2.39-8.06,0-3.66-.98-7.13-2.94-10.42-1.97-3.29-4.87-5.95-8.74-7.99-3.88-2.04-8.72-3.05-14.55-3.05-5.28,0-10.08,1.15-14.41,3.44-4.33,2.3-8.05,5.44-11.2,9.41-3.15,3.96-5.58,8.56-7.31,13.78-1.06,3.2-1.79,6.53-2.2,10.01-.27,2.2-.4,4.45-.4,6.76,0,1.47.04,2.92.14,4.32.44,6.62,1.92,12.39,4.44,17.3,1.47,2.88,3.18,5.41,5.12,7.62,2.09,2.38,4.45,4.39,7.1,6.01,5.09,3.13,10.7,4.69,16.8,4.69,3.37,0,6.81-.49,10.31-1.48,3.5-.99,7.04-2.84,10.58-5.56.62-.47,1.23-.98,1.84-1.54,1.59-1.42,3.16-3.12,4.69-5.07,1.27-1.6,2.5-3.37,3.71-5.3l-.54-.61Z"/>
            <path class="cls-22" d="M585.01,568.5v10.18c0,.81-.1,1.59-.3,2.33-1.02,3.82-4.51,6.62-8.64,6.62h-15.72c-5.41,0-10.32-2.21-14.2-6.38-.22-.24-.45-.48-.67-.73-.85,4.06-4.44,7.11-8.76,7.11h-35.93c-4.38,0-8.04-3.16-8.8-7.33-.09-.52-.15-1.07-.15-1.62v-10.18c0-.32.02-.65.05-.96.25-2.36,1.43-4.45,3.17-5.91,1.31-1.1,2.94-1.82,4.72-2.02.18-1.48.26-3.19.26-5.06v-64.4c0-.3,0-.62.01-.93,0-1.02.02-2.12.05-3.28-.04.01-.08.01-.13.01-2.21,0-4.35-.82-6-2.31-1.87-1.69-2.95-4.11-2.95-6.64v-11.91c0-4.95,4-8.95,8.95-8.95,3.64,0,6.66-.22,8.98-.64,2.76-.5,4.25-.99,5.02-1.33.41-.17.69-.3.85-.39,1.64-1.51,3.8-2.35,6.05-2.35h7.51c4.95,0,8.95,4,8.95,8.95v32.91c1.53-1.19,3.44-1.91,5.53-1.91h30.73c4.94,0,8.95,4.01,8.95,8.95v10.04c0,4.49-3.32,8.28-7.78,8.87-2.11.28-3.94.83-5.44,1.62-1.66.88-3.08,1.9-4.22,3.04-1.48,1.48-2.76,2.93-3.79,4.28l-3.71,4.78c1.28,1.58,2.68,3.51,4.22,5.89l8.98,13.54c.57.77,1.3,1.79,2.15,3.03.65.93,1.38,1.85,2.2,2.75.51.56,1.02,1.02,1.57,1.41,4.62.34,8.27,4.2,8.27,8.92Z"/>
            <path class="cls-5" d="M572.11,567.25c-1.28-.84-2.46-1.85-3.55-3.05-1.09-1.2-2.07-2.43-2.94-3.68-.87-1.25-1.57-2.25-2.11-2.98l-9.16-13.79c-1.9-2.92-3.52-5.09-4.84-6.49-1.33-1.41-2.67-2.49-4.04-3.22l8.74-11.28c1.28-1.66,2.8-3.39,4.58-5.17,1.78-1.78,3.89-3.31,6.35-4.62,2.47-1.31,5.28-2.16,8.47-2.58v-10.04h-30.73v11.91h7.24c-.82.84-1.61,1.78-2.38,2.82-.77,1.05-1.76,2.3-2.94,3.76l-9.84,13.01h-6.56v-71.45h-7.51c-.54.63-1.68,1.31-3.42,2.04-1.73.73-4.03,1.36-6.9,1.88-2.87.52-6.39.78-10.58.78v11.91c1-.1,2.48-.19,4.44-.24,1.96-.05,3.66-.13,5.11-.23-.18,2.29-.31,4.67-.41,7.12-.04,1.27-.07,2.45-.09,3.55-.03,1.06-.04,2.04-.04,2.95v64.4c0,2.72-.16,5.15-.47,7.29-.32,2.14-1.06,3.8-2.2,4.94-.9.92-2.26,1.46-4.06,1.64-.46.06-.95.08-1.47.08v10.18h35.93v-11.91c-1,0-2.36.03-4.1.08-1.73.05-3.32.18-4.78.39.18-2.39.31-4.94.41-7.59.09-2.67.14-4.73.14-6.19v-10.5l3.15-.16c.91,1.46,2.11,3.47,3.62,6.03,1.51,2.55,3.14,5.27,4.91,8.14,1.78,2.88,3.48,5.56,5.12,8.07,2.82,4.38,5.33,7.75,7.52,10.1,2.19,2.35,4.73,3.52,7.64,3.52h15.72v-10.18c-1.37,0-2.69-.42-3.96-1.25Z"/>
          </g>
          <text class="cls-20" transform="translate(144.32 623.33)"><tspan class="cls-16" x="0" y="0">R</tspan><tspan class="cls-12" x="38.53" y="0">E</tspan><tspan class="cls-18" x="75.53" y="0">SE</tspan><tspan class="cls-14" x="149.6" y="0">A</tspan><tspan class="cls-13" x="191.06" y="0">R</tspan><tspan class="cls-17" x="229.3" y="0">CH</tspan></text>
        </g>
      </g>
    </g>
  </g>
</svg>